<svg xmlns="http://www.w3.org/2000/svg" viewBox="0 0 100.46 190.24"><path d="M35,15a.82.82,0,0,0,.24-1.14L26.31.37a.83.83,0,0,0-1.38.91l8.89,13.45A.82.82,0,0,0,35,15Z" fill="#323c6b"/><path d="M80.82.14a.82.82,0,0,0-1.14.23L58.41,32.81a3.42,3.42,0,0,0-.46,0H57.9V32.1a2.48,2.48,0,0,0-2.47-2.47H50.56a2.48,2.48,0,0,0-2.47,2.47v.67H48l-.31,0-10.59-16a.83.83,0,1,0-1.38.91L46.21,33.48a2.67,2.67,0,0,0-.87,2,2.7,2.7,0,0,0,2.7,2.7h.05v2.26H42.87a3.37,3.37,0,0,0-3.37,3.36v7.66H34.69a2.46,2.46,0,0,0-2.46,2.45v1.24A1.27,1.27,0,0,0,33.5,56.4h1.86a.83.83,0,0,0,0-1.65H33.88V53.9a.8.8,0,0,1,.81-.8H71.31a.8.8,0,0,1,.8.8v.85H38.92a.83.83,0,0,0,0,1.65H72.5a1.27,1.27,0,0,0,1.26-1.26V53.9a2.45,2.45,0,0,0-2.45-2.45H66.49v-.78a.83.83,0,1,0-1.65,0v.78H41.15V43.79a1.72,1.72,0,0,1,1.72-1.71H63.13a1.72,1.72,0,0,1,1.71,1.71V47.1a.83.83,0,1,0,1.65,0V43.79a3.37,3.37,0,0,0-3.36-3.36H57.9V38.17H58a2.7,2.7,0,0,0,2.7-2.7,2.75,2.75,0,0,0-.77-1.89L81.06,1.28A.82.82,0,0,0,80.82.14ZM48,36.52a1.05,1.05,0,1,1,0-2.1h.05v2.1Zm1.71,3.91s1-3.65,1-3.43c0-.45.55,0,1,0h3c.45,0,1-.45,1,0l.51,3.43ZM58,36.52H57.9V34.43A1,1,0,1,1,58,36.52Z" fill="#323c6b"/><path d="M52.41,189.06a50,50,0,0,0,20.06-2.91l.12-.05a25.72,25.72,0,0,0,5.74-2.94,26.27,26.27,0,0,0,5.69-6,92.58,92.58,0,0,0,11.35-20.93,33.08,33.08,0,0,0,2.33-8c3.13-15.65,1.12-42.6-.32-53.37-.29-2.13-.59-4.27-1.06-6.38S95.15,84.14,94.46,82l-3-9.62a64.34,64.34,0,0,0-2.39-6.7C85.2,57,77.59,50.19,70.17,43.64a24.5,24.5,0,0,0-4.06-3.1,18.32,18.32,0,0,0-4.64-1.75,36.21,36.21,0,0,0-15-.61,19,19,0,0,0-4.78,1.38,24.37,24.37,0,0,0-4.3,2.76c-7.91,5.92-16,12.1-20.57,20.41a61.94,61.94,0,0,0-2.93,6.49l-3.79,9.34c-.85,2.11-1.7,4.22-2.38,6.38s-1.11,4.17-1.56,6.27C3.87,101.83-.3,128.54,1.56,144.39a32.93,32.93,0,0,0,1.68,8.14,92.68,92.68,0,0,0,9.62,21.77,26.37,26.37,0,0,0,5.19,6.42,27,27,0,0,0,5.49,3.4l.12,0a50,50,0,0,0,19.76,4.52Z" fill="#e7aa6c"/><path d="M91.43,72.35c1,3.22,2,6.42,3,9.62.69,2.16,1.36,4.35,1.86,6.56s.77,4.24,1.06,6.37c1.46,10.77,3.46,37.72.32,53.38a33.57,33.57,0,0,1-2.32,8A92.69,92.69,0,0,1,84,177.19a25.81,25.81,0,0,1-5.7,6,25.1,25.1,0,0,1-5.73,3l-.13,0a50.06,50.06,0,0,1-20,2.91l-9-.36a50.18,50.18,0,0,1-19.77-4.52l-.12-.05a25.89,25.89,0,0,1-5.48-3.41A22.34,22.34,0,0,1,14,176.06a28.87,28.87,0,0,0,3.56,2s.08,0,.12.07a50.65,50.65,0,0,0,19.75,4.52l9,.37a50.52,50.52,0,0,0,20.06-2.92l.13-.05a26.78,26.78,0,0,0,5.73-2.95,26.1,26.1,0,0,0,5.7-6,92.72,92.72,0,0,0,11.33-20.93,31.8,31.8,0,0,0,2.34-8c3.14-15.66,1.12-42.61-.32-53.38-.28-2.13-.59-4.25-1-6.38s-1.17-4.37-1.86-6.53c-1-3.22-2-6.43-3-9.62a58.64,58.64,0,0,0-2.39-6.7A41.9,41.9,0,0,0,75.6,48.52,54.8,54.8,0,0,1,89,65.65a58.64,58.64,0,0,1,2.39,6.7Z" fill="#d09865"/><path d="M57.74,60.33a1.08,1.08,0,0,1-1.19-.28c-.8-.86-3.34.11-4.37.68a1.09,1.09,0,0,1-1.47-.46,1.08,1.08,0,0,1,.41-1.44c.5-.28,4.87-2.6,7-.25a1.1,1.1,0,0,1-.07,1.54A1.2,1.2,0,0,1,57.74,60.33Z" fill="#323c6b"/><path d="M41.29,83.62A1.1,1.1,0,0,1,40,83.19c-.61-1-3.29-.5-4.42-.12a1.09,1.09,0,0,1-.73-2h0c.53-.18,5.25-1.68,7,1a1.09,1.09,0,0,1-.34,1.5Z" fill="#323c6b"/><path d="M71.83,85a1.08,1.08,0,0,1-1.31-.43c-.61-1-3.29-.49-4.42-.11a1.09,1.09,0,0,1-1.37-.69,1.07,1.07,0,0,1,.62-1.36l.06,0c.54-.18,5.26-1.68,7,1A1.1,1.1,0,0,1,72,85a.82.82,0,0,1-.19.09Z" fill="#323c6b"/><path d="M25.57,107.17a1.1,1.1,0,0,1-1.27-.38c-.69-1-3.36-.25-4.41.18h0a1.09,1.09,0,0,1-.81-2c.53-.22,5.14-2,7,.56a1.1,1.1,0,0,1-.24,1.52.91.91,0,0,1-.26.13Z" fill="#323c6b"/><path d="M55.1,104.88a1.08,1.08,0,0,1-1.27-.38c-.69-1-3.35-.26-4.41.18a1.05,1.05,0,0,1-1.4-.54.08.08,0,0,1,0,0,1.09,1.09,0,0,1,.58-1.42h0c.54-.21,5.14-2,7,.57a1.08,1.08,0,0,1-.25,1.51.75.75,0,0,1-.25.13Z" fill="#323c6b"/><path d="M52.32,135a1.1,1.1,0,0,1-1.27-.38c-.68-1-3.33-.25-4.41.18a1,1,0,0,1-1.37-.47.61.61,0,0,1-.05-.12,1.09,1.09,0,0,1,.59-1.42h0c.52-.21,5.13-2,7,.57a1,1,0,0,1-.51,1.64Z" fill="#323c6b"/><path d="M80,113.2a1.1,1.1,0,0,1-1.27-.38c-.68-.94-3.26-.29-4.41.18a1.07,1.07,0,0,1-1.41-.57v0a1.08,1.08,0,0,1,.59-1.42c.52-.22,5.13-2,7,.55a1.08,1.08,0,0,1-.24,1.52,1,1,0,0,1-.25.14Z" fill="#323c6b"/><path d="M23.73,137.59a1.08,1.08,0,0,1-1.25-.36c-.71-.92-3.32-.19-4.41.3a1.14,1.14,0,0,1-1.43-.56,1.08,1.08,0,0,1,.55-1.43c.52-.22,5.08-2.15,7,.38a1.08,1.08,0,0,1-.21,1.52h0a.89.89,0,0,1-.27.15Z" fill="#323c6b"/><path d="M79.05,138.29a1.09,1.09,0,0,1-1.25-.35c-.72-.94-3.32-.19-4.41.29a1,1,0,0,1-1.4-.48.25.25,0,0,1,0-.07,1.1,1.1,0,0,1,.56-1.44h0c.51-.22,5.08-2.15,7,.38a1.08,1.08,0,0,1-.21,1.52.89.89,0,0,1-.27.15Z" fill="#323c6b"/><path d="M34.42,165.8a1.1,1.1,0,0,1-1.33-.46c-.59-1-3.28-.59-4.41-.24a1.08,1.08,0,0,1-1.36-.72h0A1.11,1.11,0,0,1,28,163c.54-.16,5.3-1.53,6.93,1.21a1.09,1.09,0,0,1-.39,1.49l-.16.08Z" fill="#323c6b"/><path d="M64.91,168.06a1.08,1.08,0,0,1-1.32-.46c-.6-1-3.28-.58-4.41-.24a1.09,1.09,0,1,1-.65-2.08c.54-.16,5.3-1.54,6.93,1.21a1.09,1.09,0,0,1-.39,1.49Z" fill="#323c6b"/><path d="M72.93,187.14a51.22,51.22,0,0,1-20.56,3l-9-.37a51.08,51.08,0,0,1-20.19-4.62,27.1,27.1,0,0,1-5.83-3.6A27.45,27.45,0,0,1,12,174.89a92.93,92.93,0,0,1-9.75-22,33.44,33.44,0,0,1-1.72-8.41c-2-17,2.8-45,4.64-53.45.47-2.17.94-4.28,1.59-6.36s1.56-4.38,2.41-6.47l3.79-9.34a61.18,61.18,0,0,1,3-6.61c4.72-8.67,13.31-15.09,20.89-20.77a25.18,25.18,0,0,1,4.48-2.89,20.34,20.34,0,0,1,5.06-1.45,37.52,37.52,0,0,1,15.43.62,20.12,20.12,0,0,1,4.91,1.86,25.25,25.25,0,0,1,4.25,3.24C78,49.09,86,56.19,90,65.21A60.61,60.61,0,0,1,92.46,72l3,9.67c.68,2.15,1.38,4.38,1.88,6.63s.78,4.28,1.08,6.47c1.15,8.58,3.68,36.86.31,53.73a34.08,34.08,0,0,1-2.39,8.17A92.77,92.77,0,0,1,84.9,177.83,27.32,27.32,0,0,1,79,184a27,27,0,0,1-6,3.08Zm-30-146.91a7.54,7.54,0,0,0-.76.32,23,23,0,0,0-4.11,2.64C30.67,48.73,22.28,55,17.79,63.26a61.77,61.77,0,0,0-2.86,6.38L11.14,79c-.83,2-1.69,4.17-2.35,6.29s-1.08,4.06-1.54,6.19C5,102,.82,128.73,2.64,144.27a32.22,32.22,0,0,0,1.64,7.95,91.15,91.15,0,0,0,9.51,21.52,25.48,25.48,0,0,0,5,6.16A24.78,24.78,0,0,0,24,183.15a49.1,49.1,0,0,0,19.44,4.46l9,.37a49.82,49.82,0,0,0,19.62-2.84,25.29,25.29,0,0,0,5.63-2.86,25.74,25.74,0,0,0,5.43-5.74,91.08,91.08,0,0,0,11.22-20.69,32.49,32.49,0,0,0,2.26-7.71c3.08-15.43,1.11-42.43-.31-53.1-.29-2.15-.58-4.24-1-6.28s-1.17-4.35-1.83-6.46l-3-9.62a61.4,61.4,0,0,0-2.34-6.59C84.25,57.5,76.4,50.57,69.47,44.46a22.88,22.88,0,0,0-3.89-3,17.17,17.17,0,0,0-4.38-1.65,35.25,35.25,0,0,0-14.53-.58,18.94,18.94,0,0,0-3.73,1Z" fill="#323c6b"/><path d="M13.12,126.19A120,120,0,0,0,13,142.61a23.88,23.88,0,0,0,.73,4.68,1.81,1.81,0,0,1-1.11,2.11l-.21,0a1.81,1.81,0,0,1-2.18-1.3,29.35,29.35,0,0,1-.81-5.26A122.34,122.34,0,0,1,9.55,126a1.8,1.8,0,0,1,1.89-1.69,1.88,1.88,0,0,1,1.23.6A1.76,1.76,0,0,1,13.12,126.19Z" fill="#fff"/><path d="M14.6,153.53a1.81,1.81,0,0,1,.91,1c.25.72.52,1.43.8,2.16A1.79,1.79,0,1,1,13,158c-.29-.73-.57-1.49-.84-2.22a1.84,1.84,0,0,1,1.08-2.3A1.88,1.88,0,0,1,14.6,153.53Z" fill="#fff"/><circle cx="33.5" cy="93.89" r="5.89" fill="#323c6b"/><circle cx="34.31" cy="91.97" r="2.3" fill="#b1b6c9"/><circle cx="68.17" cy="93.89" r="5.89" fill="#323c6b"/><circle cx="67.35" cy="92" r="2.27" fill="#b1b6c9"/><path d="M24.29,113.28c12.59,4.1,36.55,3.79,51.66-2.24C85,107.42,70.73,137,46,137,28.51,137,18.25,111.31,24.29,113.28Z" fill="#603813" stroke="#323c6b" stroke-miterlimit="10"/><path d="M24.17,113.6c12.52,4.08,36.35,3.78,51.37-2.22.35-.14,1.61-.6,2.18,0,.85.8-.29,4.62-.58,5.23-2.32,4.86-14.16,7.79-29.52,7.87-11.45.06-22.23-1.54-23.66-5.8-.08-.22-1.94-4.3-.93-5A1.36,1.36,0,0,1,24.17,113.6Z" fill="#fff"/><path d="M24.29,113.28c12.59,4.1,36.55,3.79,51.66-2.24C85,107.42,70.73,137,46,137,28.51,137,18.25,111.31,24.29,113.28Z" fill="none" stroke="#323c6b" stroke-miterlimit="10" stroke-width="2"/></svg>