<svg xmlns="http://www.w3.org/2000/svg" viewBox="0 0 113.78 155.3"><path d="M34.17,149.72a50,50,0,0,0,19.77,4.48h.13a26.07,26.07,0,0,0,6.41-.68A26.36,26.36,0,0,0,67.94,150,92.86,92.86,0,0,0,86,134.52a33.1,33.1,0,0,0,5-6.62c8.54-13.48,16.34-39.36,18.86-49.93.49-2.09,1-4.19,1.3-6.33s.47-4.51.62-6.78l.63-10.06a62.69,62.69,0,0,0,.17-7.12c-.48-9.46-5.15-18.55-9.72-27.31A24,24,0,0,0,100.27,16a18.53,18.53,0,0,0-3.71-3.31A36.16,36.16,0,0,0,82.79,6.77a19.14,19.14,0,0,0-5-.44,24.42,24.42,0,0,0-5,1C63.33,10.06,53.51,12.91,46.31,19a62.83,62.83,0,0,0-5.06,5l-6.89,7.37c-1.55,1.65-3.11,3.32-4.51,5.1S27.32,40,26.14,41.79c-6,9.09-19.44,32.52-23.4,48A33.08,33.08,0,0,0,1.39,98a92,92,0,0,0,1.17,23.78A25.79,25.79,0,0,0,5.1,129.6,25.7,25.7,0,0,0,9,134.74l.09.1a50.14,50.14,0,0,0,16.82,11.31Z" style="fill:#e7aa6c"/><path d="M112.48,54.79c-.2,3.37-.41,6.72-.63,10.07-.13,2.26-.28,4.54-.61,6.78s-.8,4.24-1.3,6.33c-2.51,10.57-10.31,36.45-18.86,49.94a33.61,33.61,0,0,1-5,6.61A93.22,93.22,0,0,1,67.94,150a25.92,25.92,0,0,1-7.46,3.53,25.22,25.22,0,0,1-6.42.69h-.13a50.08,50.08,0,0,1-19.75-4.48l-8.26-3.56A50.47,50.47,0,0,1,9.08,134.85L9,134.76a25.83,25.83,0,0,1-3.9-5.16A22.57,22.57,0,0,1,3,123.8a30.06,30.06,0,0,0,2.61,3.13s.07.06.09.11a50.65,50.65,0,0,0,16.81,11.31l8.27,3.56a50.32,50.32,0,0,0,19.77,4.49h.13a27.62,27.62,0,0,0,6.41-.7,26.12,26.12,0,0,0,7.46-3.55,91.89,91.89,0,0,0,18.1-15.46,32,32,0,0,0,5-6.61c8.55-13.49,16.34-39.37,18.86-49.94.5-2.09,1-4.17,1.31-6.33s.47-4.5.6-6.76c.22-3.37.44-6.72.64-10.07a62.51,62.51,0,0,0,.17-7.11,42.18,42.18,0,0,0-3-13,54.88,54.88,0,0,1,6.39,20.82,58.21,58.21,0,0,1-.17,7.11Z" style="fill:#d09865"/><path d="M85.34,31.48a1.09,1.09,0,0,1-1-.69c-.43-1.09-3.15-1.1-4.32-.94a1.09,1.09,0,0,1-.3-2.15c.56-.08,5.48-.68,6.65,2.29a1.1,1.1,0,0,1-1,1.49Z" style="fill:#323c6b"/><path d="M61.63,47.31a1.09,1.09,0,0,1-1.06-.87c-.22-1.14-2.9-1.64-4.09-1.7a1.07,1.07,0,0,1-1-1.13,1.06,1.06,0,0,1,1.09-1h0c.56,0,5.51.32,6.12,3.45a1.08,1.08,0,0,1-.86,1.27Z" style="fill:#323c6b"/><path d="M89.63,59.6a1.1,1.1,0,0,1-1.07-.87c-.21-1.14-2.9-1.64-4.08-1.7a1.08,1.08,0,0,1-1-1.13,1,1,0,0,1,1.06-1h.07c.56,0,5.51.32,6.12,3.45a1.08,1.08,0,0,1-.86,1.27.75.75,0,0,1-.21,0Z" style="fill:#323c6b"/><path d="M38.51,63.65a1.09,1.09,0,0,1-1-.81c-.3-1.13-3-1.44-4.18-1.42h0a1.09,1.09,0,1,1,0-2.17c.57,0,5.52,0,6.34,3a1.08,1.08,0,0,1-.77,1.33.86.86,0,0,1-.28,0Z" style="fill:#323c6b"/><path d="M66.9,72.11a1.07,1.07,0,0,1-1.05-.8c-.31-1.14-3-1.45-4.19-1.42a1.06,1.06,0,0,1-1.11-1v0a1.09,1.09,0,0,1,1.06-1.12h0c.57,0,5.51,0,6.34,3.05a1.09,1.09,0,0,1-.77,1.33.9.9,0,0,1-.28,0Z" style="fill:#323c6b"/><path d="M53.49,99.23a1.09,1.09,0,0,1-1.05-.81c-.3-1.13-3-1.43-4.18-1.42a1,1,0,0,1-1.11-.93.53.53,0,0,1,0-.13,1.09,1.09,0,0,1,1.07-1.11h0c.57,0,5.52,0,6.34,3a1.08,1.08,0,0,1-.77,1.33,1.37,1.37,0,0,1-.29,0Z" style="fill:#323c6b"/><path d="M87.16,88.81a1.07,1.07,0,0,1-1-.8c-.31-1.13-3-1.45-4.19-1.43a1.07,1.07,0,0,1-1.11-1v0a1.09,1.09,0,0,1,1.06-1.11c.58,0,5.52,0,6.35,3a1.09,1.09,0,0,1-.77,1.33,1,1,0,0,1-.28,0Z" style="fill:#323c6b"/><path d="M25.87,91.38a1.09,1.09,0,0,1-1-.78c-.33-1.12-3-1.37-4.22-1.3a1.15,1.15,0,0,1-1.14-1,1.09,1.09,0,0,1,1-1.14c.56,0,5.51-.18,6.41,2.88a1.09,1.09,0,0,1-.74,1.35h0a1.05,1.05,0,0,1-.31,0Z" style="fill:#323c6b"/><path d="M77.26,111.89a1.1,1.1,0,0,1-1.05-.78c-.33-1.13-3-1.36-4.22-1.3a1.05,1.05,0,0,1-1.13-1s0,0,0-.07a1.1,1.1,0,0,1,1-1.15h0c.55,0,5.51-.19,6.41,2.87a1.1,1.1,0,0,1-.73,1.36l-.31,0Z" style="fill:#323c6b"/><path d="M25.73,121.55a1.08,1.08,0,0,1-1.07-.91c-.2-1.15-2.86-1.72-4-1.8a1.09,1.09,0,0,1-1-1.16h0a1.11,1.11,0,0,1,1.16-1c.56,0,5.5.47,6,3.61a1.09,1.09,0,0,1-.89,1.26Z" style="fill:#323c6b"/><path d="M53.37,134.61a1.09,1.09,0,0,1-1.07-.91c-.19-1.16-2.85-1.72-4-1.8a1.09,1.09,0,0,1,.15-2.18c.56,0,5.5.47,6,3.61a1.09,1.09,0,0,1-.89,1.26Z" style="fill:#323c6b"/><path d="M92.28,138.43a1.08,1.08,0,0,1-1.09-1.08,1.06,1.06,0,0,1,.27-.72c.51-.58,1-1.21,1.49-1.84l1,.52.86.67c-.64.81-1.16,1.47-1.69,2.09a1.08,1.08,0,0,1-.82.36Z" style="fill:#323c6b"/><path d="M73.72,155a1.09,1.09,0,0,1-.61-2A96.33,96.33,0,0,0,87.68,140.7a1.09,1.09,0,1,1,1.55,1.52h0a98.05,98.05,0,0,1-14.89,12.62A1.12,1.12,0,0,1,73.72,155Z" style="fill:#323c6b"/><path d="M38.42,18.67a1.08,1.08,0,0,1-1.08-1.09,1.11,1.11,0,0,1,.31-.77c.67-.68,1.37-1.36,2.1-2a1.09,1.09,0,0,1,1.5,1.58h0c-.71.67-1.4,1.34-2,2A1.07,1.07,0,0,1,38.42,18.67Z" style="fill:#323c6b"/><path d="M48.21,10.87a1.08,1.08,0,0,1-1.08-1.09,1.09,1.09,0,0,1,.53-.94A97.14,97.14,0,0,1,70.78.05a1.09,1.09,0,0,1,1.36.71,1.07,1.07,0,0,1-.7,1.36l-.07,0a95.29,95.29,0,0,0-22.61,8.58A1,1,0,0,1,48.21,10.87Z" style="fill:#323c6b"/><path d="M54,155.29a51.22,51.22,0,0,1-20.27-4.56l-8.26-3.57A50.91,50.91,0,0,1,8.3,135.6a27.28,27.28,0,0,1-4.16-5.46A27.55,27.55,0,0,1,1.49,122,92.82,92.82,0,0,1,.3,97.91a33.88,33.88,0,0,1,1.41-8.47C6,72.85,20.47,48.45,25.23,41.22c1.22-1.85,2.42-3.66,3.76-5.37s3-3.52,4.57-5.17l6.89-7.36a63.54,63.54,0,0,1,5.15-5.1c7.52-6.4,17.84-9.31,26.95-11.89a25.92,25.92,0,0,1,5.22-1.09A20.06,20.06,0,0,1,83,5.7a37.62,37.62,0,0,1,14.18,6.12,19.78,19.78,0,0,1,3.92,3.5,25.2,25.2,0,0,1,2.8,4.54c4.37,8.4,9.34,17.91,9.84,27.76a64.1,64.1,0,0,1-.17,7.2l-.64,10.11c-.14,2.25-.29,4.59-.62,6.87s-.81,4.27-1.32,6.42c-2,8.42-9.79,35.73-19,50.26a34.43,34.43,0,0,1-5.16,6.77,92.78,92.78,0,0,1-18.32,15.64,27.3,27.3,0,0,1-7.77,3.68,26.82,26.82,0,0,1-6.68.72ZM78.75,7.4c-.28,0-.56,0-.83,0a23.61,23.61,0,0,0-4.78,1c-8.9,2.52-19,5.37-26.13,11.46a59.05,59.05,0,0,0-5,4.92l-6.89,7.36c-1.51,1.61-3.07,3.28-4.45,5s-2.47,3.4-3.66,5.22C21.14,51.4,7.67,74.89,3.8,90.05a32,32,0,0,0-1.33,8,90.73,90.73,0,0,0,1.16,23.5,25.32,25.32,0,0,0,2.42,7.53A25.25,25.25,0,0,0,9.79,134a49.1,49.1,0,0,0,16.55,11.15l8.26,3.56a49.68,49.68,0,0,0,19.34,4.4,24.93,24.93,0,0,0,6.27-.65,25.51,25.51,0,0,0,7.14-3.41,91.06,91.06,0,0,0,17.89-15.28,32.2,32.2,0,0,0,4.88-6.39c8.42-13.29,16.27-39.2,18.77-49.67.5-2.11,1-4.17,1.29-6.24s.46-4.48.6-6.68l.63-10.07a62.75,62.75,0,0,0,.18-7c-.48-9.38-5.33-18.67-9.6-26.87a23.22,23.22,0,0,0-2.56-4.17,17.52,17.52,0,0,0-3.5-3.1A35.18,35.18,0,0,0,82.58,7.84a19.06,19.06,0,0,0-3.83-.44Z" style="fill:#323c6b"/><path d="M20.07,76.93a118.54,118.54,0,0,0-6,15.29,23.77,23.77,0,0,0-1,4.63,1.78,1.78,0,0,1-1.78,1.57l-.22,0a1.77,1.77,0,0,1-1.19-.68A1.71,1.71,0,0,1,9.5,96.4a27.87,27.87,0,0,1,1.13-5.2,120.2,120.2,0,0,1,6.18-15.75,1.78,1.78,0,0,1,3.3.11A1.76,1.76,0,0,1,20.07,76.93Z" style="fill:#fff"/><path d="M11.63,103a1.74,1.74,0,0,1,.48,1.28c0,.76,0,1.52,0,2.31a1.8,1.8,0,0,1-3.59,0c0-.78,0-1.58,0-2.37a1.84,1.84,0,0,1,1.83-1.76A1.89,1.89,0,0,1,11.63,103Z" style="fill:#fff"/><path d="M31,61c12.5,10.43,40,21,60,21,12,0-17.81,27.28-46,16C25,90,25,56,31,61Z" style="fill:#603813;stroke:#323c6b;stroke-miterlimit:10"/><path d="M30.56,61.36c12.51,10.42,40,21,60,21,.46,0,2.12,0,2.53.94.6,1.31-2.46,5.18-3.07,5.74-4.89,4.52-19.83,2.46-37.5-4.5C39.35,79.36,27.71,72.58,28,67c0-.29-.26-5.83,1.23-6.17A1.65,1.65,0,0,1,30.56,61.36Z" style="fill:#fff"/><path d="M31,61c12.5,10.43,40,21,60,21,12,0-17.81,27.28-46,16C25,90,25,56,31,61Z" style="fill:none;stroke:#323c6b;stroke-miterlimit:10;stroke-width:2px"/><path d="M12.6,66.11a7.41,7.41,0,0,0,10,2.8c4.91-2.78,7.62-10.22,12-14.68a.38.38,0,0,0-.36-.63c-6.11,1.38-13.86-.25-18.81,2.45a7.41,7.41,0,0,0-2.93,10" style="fill:#b2edff"/><path d="M15.55,67.25a.62.62,0,0,1,.88-.81,4.7,4.7,0,0,0,3.86.6.62.62,0,0,1,.76.42.62.62,0,0,1-.43.76,5.91,5.91,0,0,1-4.87-.76A.8.8,0,0,1,15.55,67.25Z" style="fill:#e8faff"/><path d="M14.5,67.85l0,0c-2-3.53-.42-8.18,3.35-10.25,3.92-2.13,9.39-1.89,14.6-2.26a3.5,3.5,0,0,0,2.24-1.06h0a.38.38,0,0,0-.36-.63c-6.5,1.47-14.87-.48-19.74,3a7.29,7.29,0,0,0-2,9.44l0,0a7.23,7.23,0,0,0,2.49,2.6A7.66,7.66,0,0,1,14.5,67.85Z" style="fill:#59d8ff"/><path d="M100.27,101.29a7.41,7.41,0,0,0,5.34-9c-1.4-5.46-7.87-10-11-15.44a.37.37,0,0,0-.42-.18.38.38,0,0,0-.29.35c-.26,6.26-3.87,13.31-2.55,18.8a7.41,7.41,0,0,0,8.9,5.45" style="fill:#b2edff"/><path d="M97.09,99.92a5.94,5.94,0,0,1-3.88-3,.62.62,0,0,1,.27-.83.6.6,0,0,1,.82.27,4.71,4.71,0,0,0,3.08,2.41.62.62,0,0,1,.45.74.61.61,0,0,1-.45.45A.57.57,0,0,1,97.09,99.92Z" style="fill:#e8faff"/><path d="M96.62,101.26a7.34,7.34,0,0,0,3.61,0h0a7.27,7.27,0,0,0,5.54-7.89c-.74-6-7.87-10.76-11.22-16.52a.37.37,0,0,0-.42-.18.38.38,0,0,0-.29.35h0a3.51,3.51,0,0,0,.76,2.36c3.26,4.07,7.18,7.91,8.28,12.23a7.69,7.69,0,0,1-5.23,9.44h0A7.12,7.12,0,0,1,96.62,101.26Z" style="fill:#59d8ff"/><path d="M39.19,55.06a65.5,65.5,0,0,1,9.42-2c1.58-.23,3.16-.42,4.74-.58l.58-.06.11-.05a.63.63,0,0,0,.22-.21.6.6,0,0,0,0-.63l.06.08c-1.61-2-3.15-4-4.63-6.12-.73-1.06-1.46-2.11-2.14-3.21s-1.37-2.19-2-3.34c1,.8,2,1.65,3,2.52s1.87,1.76,2.8,2.66q2.72,2.72,5.24,5.6l.07.08a3.53,3.53,0,0,1,.2,3.89,3.59,3.59,0,0,1-2.54,1.68l-.62,0c-1.6.1-3.2.16-4.81.19A65.56,65.56,0,0,1,39.19,55.06Z" style="fill:#323c6b"/><path d="M90.73,75.19a64.61,64.61,0,0,1-7.38-6.29c-1.15-1.12-2.28-2.26-3.37-3.43-.15-.15-.27-.28-.42-.46a3.36,3.36,0,0,1-.54-.92,3.57,3.57,0,0,1-.16-2,3.52,3.52,0,0,1,2.82-2.69l.1,0c2.54-.24,5.1-.4,7.66-.47,1.29,0,2.57,0,3.86,0s2.58.07,3.88.19c-1.24.42-2.49.76-3.74,1.07s-2.5.59-3.76.86c-2.51.51-5,.93-7.57,1.28l.11,0a.59.59,0,0,0-.43.46.65.65,0,0,0,0,.31c0,.06,0,.1,0,.11l.38.44q1.56,1.8,3,3.68A65.6,65.6,0,0,1,90.73,75.19Z" style="fill:#323c6b"/></svg>