<svg xmlns="http://www.w3.org/2000/svg" viewBox="0 0 100.46 153.66"><path d="M52.41,152.48a50.16,50.16,0,0,0,20.06-2.92l.12,0a25.75,25.75,0,0,0,5.74-3,26.22,26.22,0,0,0,5.69-6,92.65,92.65,0,0,0,11.35-20.94,33.13,33.13,0,0,0,2.33-8c3.13-15.65,1.12-42.61-.32-53.38-.29-2.13-.59-4.27-1.06-6.38s-1.17-4.38-1.86-6.54l-3-9.62a63.7,63.7,0,0,0-2.39-6.71c-3.85-8.65-11.46-15.46-18.88-22A23.91,23.91,0,0,0,66.11,4,18.74,18.74,0,0,0,61.47,2.2a36,36,0,0,0-15-.6A18.55,18.55,0,0,0,41.71,3a25,25,0,0,0-4.3,2.76c-7.91,5.93-16,12.1-20.57,20.42a60.86,60.86,0,0,0-2.93,6.48L10.12,42c-.85,2.11-1.7,4.22-2.38,6.38s-1.11,4.17-1.56,6.27C3.87,65.24-.3,92,1.56,107.8a32.84,32.84,0,0,0,1.68,8.14,92.68,92.68,0,0,0,9.62,21.77,26.37,26.37,0,0,0,5.19,6.42,26.17,26.17,0,0,0,5.49,3.4l.12.05a50,50,0,0,0,19.76,4.52Z" style="fill:#e7aa6c"/><path d="M91.43,35.76c1,3.22,2,6.42,3,9.63.69,2.15,1.36,4.34,1.86,6.55s.77,4.25,1.06,6.37c1.46,10.77,3.46,37.73.32,53.38a33.57,33.57,0,0,1-2.32,8A92.69,92.69,0,0,1,84,140.6a26.05,26.05,0,0,1-5.7,6,25.07,25.07,0,0,1-5.73,3l-.13,0a50.05,50.05,0,0,1-20,2.9l-9-.36a50,50,0,0,1-19.77-4.52l-.12-.05a25.89,25.89,0,0,1-5.48-3.41A22.55,22.55,0,0,1,14,139.48a30.17,30.17,0,0,0,3.56,2s.08,0,.12.07a50.47,50.47,0,0,0,19.75,4.52l9,.37a50.16,50.16,0,0,0,20.06-2.92l.13,0a27.28,27.28,0,0,0,5.73-3,26.1,26.1,0,0,0,5.7-6,92.51,92.51,0,0,0,11.33-20.93,31.8,31.8,0,0,0,2.34-8C94.84,90,92.82,63,91.38,52.23c-.28-2.13-.59-4.25-1-6.37s-1.17-4.38-1.86-6.54c-1-3.22-2-6.43-3-9.62A58.64,58.64,0,0,0,83.05,23,42.06,42.06,0,0,0,75.6,11.93,54.91,54.91,0,0,1,89,29.06a58.64,58.64,0,0,1,2.39,6.7Z" style="fill:#d09865"/><path d="M57.74,23.74a1.08,1.08,0,0,1-1.19-.28c-.8-.86-3.34.11-4.37.68a1.09,1.09,0,0,1-1.06-1.9c.5-.28,4.87-2.6,7-.25a1.1,1.1,0,0,1-.07,1.54A1,1,0,0,1,57.74,23.74Z" style="fill:#323c6b"/><path d="M41.29,47A1.1,1.1,0,0,1,40,46.6c-.61-1-3.29-.49-4.42-.12a1.09,1.09,0,0,1-.73-2h0c.53-.18,5.25-1.68,7,1a1.09,1.09,0,0,1-.34,1.5Z" style="fill:#323c6b"/><path d="M71.83,48.45A1.08,1.08,0,0,1,70.52,48c-.61-1-3.29-.49-4.42-.11a1.09,1.09,0,0,1-1.37-.69,1.07,1.07,0,0,1,.62-1.36l.06,0c.54-.18,5.26-1.68,7,1a1.1,1.1,0,0,1-.35,1.5.82.82,0,0,1-.19.09Z" style="fill:#323c6b"/><path d="M25.57,70.58a1.08,1.08,0,0,1-1.27-.38c-.69-1-3.36-.25-4.41.18h0a1.09,1.09,0,0,1-.81-2c.53-.22,5.14-2,7,.57a1.09,1.09,0,0,1-.24,1.51.91.91,0,0,1-.26.13Z" style="fill:#323c6b"/><path d="M55.1,68.29a1.09,1.09,0,0,1-1.27-.37c-.69-1-3.35-.27-4.41.17a1.06,1.06,0,0,1-1.4-.53.14.14,0,0,1,0-.06,1.09,1.09,0,0,1,.58-1.42h0c.54-.21,5.14-2,7,.57a1.09,1.09,0,0,1-.25,1.52,1,1,0,0,1-.25.12Z" style="fill:#323c6b"/><path d="M52.32,98.41A1.08,1.08,0,0,1,51.05,98c-.68-1-3.33-.25-4.41.18a1,1,0,0,1-1.37-.47.61.61,0,0,1-.05-.12,1.09,1.09,0,0,1,.59-1.42h0c.52-.21,5.13-2,7,.57a1,1,0,0,1-.51,1.64Z" style="fill:#323c6b"/><path d="M80,76.61a1.1,1.1,0,0,1-1.27-.38c-.68-.94-3.26-.29-4.41.18a1.07,1.07,0,0,1-1.41-.57v0a1.08,1.08,0,0,1,.59-1.42c.52-.22,5.13-2,7,.55a1.08,1.08,0,0,1-.24,1.52,1,1,0,0,1-.25.14Z" style="fill:#323c6b"/><path d="M23.73,101a1.09,1.09,0,0,1-1.25-.35c-.71-.93-3.32-.2-4.41.29a1.14,1.14,0,0,1-1.43-.55A1.09,1.09,0,0,1,17.19,99c.52-.22,5.08-2.15,7,.38a1.1,1.1,0,0,1-.21,1.53h0a.87.87,0,0,1-.27.14Z" style="fill:#323c6b"/><path d="M79.05,101.7a1.09,1.09,0,0,1-1.25-.35c-.72-.93-3.32-.19-4.41.29a1,1,0,0,1-1.4-.48.16.16,0,0,1,0-.07,1.09,1.09,0,0,1,.56-1.43h0c.51-.23,5.08-2.16,7,.37a1.1,1.1,0,0,1-.21,1.53.87.87,0,0,1-.27.14Z" style="fill:#323c6b"/><path d="M34.42,129.21a1.09,1.09,0,0,1-1.33-.46c-.59-1-3.28-.58-4.41-.24a1.09,1.09,0,0,1-1.36-.71h0a1.11,1.11,0,0,1,.72-1.36c.54-.16,5.3-1.53,6.93,1.21a1.09,1.09,0,0,1-.39,1.49l-.16.08Z" style="fill:#323c6b"/><path d="M64.91,131.48a1.09,1.09,0,0,1-1.32-.47c-.6-1-3.28-.58-4.41-.23a1.09,1.09,0,0,1-.65-2.09c.54-.16,5.3-1.54,6.93,1.21a1.09,1.09,0,0,1-.39,1.49Z" style="fill:#323c6b"/><path d="M72.93,150.56a51.39,51.39,0,0,1-20.56,3l-9-.37a50.91,50.91,0,0,1-20.19-4.62,27.1,27.1,0,0,1-5.83-3.6A27.59,27.59,0,0,1,12,138.31a93.29,93.29,0,0,1-9.75-22,33.63,33.63,0,0,1-1.72-8.41c-2-17,2.8-45,4.64-53.46.47-2.17.94-4.28,1.59-6.36s1.56-4.37,2.41-6.46l3.79-9.35a61.18,61.18,0,0,1,3-6.61C20.6,17,29.19,10.54,36.77,4.86A25.75,25.75,0,0,1,41.25,2,20.34,20.34,0,0,1,46.31.52a37.52,37.52,0,0,1,15.43.63A19.33,19.33,0,0,1,66.65,3,24.68,24.68,0,0,1,70.9,6.24C78,12.5,86,19.6,90,28.62a60.61,60.61,0,0,1,2.42,6.77l3,9.67c.68,2.16,1.38,4.39,1.88,6.64s.78,4.27,1.08,6.46c1.15,8.58,3.68,36.86.31,53.74a34.13,34.13,0,0,1-2.39,8.16A92.77,92.77,0,0,1,84.9,141.24,27.57,27.57,0,0,1,79,147.46a27,27,0,0,1-6,3.07ZM42.94,3.64c-.27.1-.52.21-.76.32a22.52,22.52,0,0,0-4.11,2.65c-7.4,5.54-15.79,11.81-20.28,20.06a61.77,61.77,0,0,0-2.86,6.38l-3.79,9.34c-.83,2-1.69,4.17-2.35,6.29s-1.08,4.06-1.54,6.19C5,65.39.82,92.14,2.64,107.68a32.22,32.22,0,0,0,1.64,7.95,91.15,91.15,0,0,0,9.51,21.52,25.48,25.48,0,0,0,5,6.16A24.78,24.78,0,0,0,24,146.56,48.94,48.94,0,0,0,43.46,151l9,.36a49.64,49.64,0,0,0,19.62-2.84,24.87,24.87,0,0,0,5.63-2.86A25.74,25.74,0,0,0,83.14,140a90.87,90.87,0,0,0,11.22-20.69,32.36,32.36,0,0,0,2.26-7.71c3.08-15.43,1.11-42.43-.31-53.1-.29-2.14-.58-4.24-1-6.28s-1.17-4.35-1.83-6.46l-3-9.62a61.4,61.4,0,0,0-2.34-6.59C84.25,20.92,76.4,14,69.47,7.87a22.88,22.88,0,0,0-3.89-3A17.55,17.55,0,0,0,61.2,3.25a35.25,35.25,0,0,0-14.53-.58,18.94,18.94,0,0,0-3.73,1Z" style="fill:#323c6b"/><path d="M13.12,89.6A120,120,0,0,0,13,106a24.09,24.09,0,0,0,.73,4.69,1.8,1.8,0,0,1-1.11,2.1l-.21,0a1.73,1.73,0,0,1-1.35-.2,1.69,1.69,0,0,1-.83-1.1,29.07,29.07,0,0,1-.81-5.26,122.36,122.36,0,0,1,.12-16.91,1.8,1.8,0,0,1,1.89-1.69,1.88,1.88,0,0,1,1.23.6A1.77,1.77,0,0,1,13.12,89.6Z" style="fill:#fff"/><path d="M14.6,117a1.76,1.76,0,0,1,.91,1c.25.72.52,1.43.8,2.16A1.79,1.79,0,0,1,13,121.4c-.29-.73-.57-1.48-.84-2.22A1.8,1.8,0,0,1,14.6,117Z" style="fill:#fff"/><path d="M41.23,58.44a5.67,5.67,0,0,1,.1,2.45,5.19,5.19,0,0,1-1.08,2.36,5.44,5.44,0,0,1-2.42,1.68,7.09,7.09,0,0,1-2.58.42,7.39,7.39,0,0,1-2.65-.47,5.77,5.77,0,0,1-2.34-1.64,6.92,6.92,0,0,1-1.47-4.44l.24-.18a18.39,18.39,0,0,0,2.64,2.78,5.19,5.19,0,0,0,3.51,1,5.48,5.48,0,0,0,3.49-1.06,10.76,10.76,0,0,0,2.29-3Z" style="fill:#323c6b"/><path d="M62.33,58.27a12.4,12.4,0,0,0,2.59,3.18,5.65,5.65,0,0,0,3.78,1.08,5.37,5.37,0,0,0,3.74-1.2,19.56,19.56,0,0,0,2.64-3.19l.25.17A7.47,7.47,0,0,1,74,63.09a5.89,5.89,0,0,1-2.43,1.84,7.56,7.56,0,0,1-2.81.58,7.46,7.46,0,0,1-2.78-.39A5.71,5.71,0,0,1,62.15,61a6.51,6.51,0,0,1-.08-2.57Z" style="fill:#323c6b"/><ellipse cx="52.06" cy="81.72" rx="6.85" ry="7.5" style="fill:#603813"/><path d="M57.3,44.85l-1,.46a14.88,14.88,0,0,0-3.1,2.55c-1,1-1.9,1.93-2.84,2.9l0,0,2.4.23c1,.09,1.79.18,2.37.26a7.14,7.14,0,0,1,1.31.25c.52.19.77.49.73.89a.82.82,0,0,1-.41.67,1.13,1.13,0,0,1-.71.13l-.59-.11c-.26,0-.45-.09-.58-.1-.69-.1-1.72-.22-3.1-.37s-2.41-.28-3.1-.38a1.09,1.09,0,0,1-.69-.32.82.82,0,0,1-.23-.73,2.26,2.26,0,0,1,.59-1.1c.1-.12.41-.43.9-.92l2.63-2.65a22.11,22.11,0,0,1,2.87-2.42c-.71,0-1.25-.1-1.63-.15l-2.73-.37-.22,0-.22,0a1,1,0,0,1-.64-.33.83.83,0,0,1-.22-.73c.08-.62.59-.86,1.5-.74.31,0,.77.13,1.39.25s1.07.21,1.39.25.87.11,1.56.18l1.56.19c1.35.19,2,.57,1.9,1.16C58.3,44.16,58,44.52,57.3,44.85Z" style="fill:#9e005d"/><path d="M73.6,37.63l-1.44.61a22,22,0,0,0-4.57,3.47l-4.2,4,0,0,3.41.46c1.42.18,2.54.34,3.38.48a11.75,11.75,0,0,1,1.85.43c.74.3,1.07.74,1,1.32a1.16,1.16,0,0,1-.62.92,1.5,1.5,0,0,1-1,.15l-.83-.18c-.37-.09-.64-.15-.83-.18-1-.17-2.44-.4-4.4-.69s-3.43-.52-4.41-.69a1.67,1.67,0,0,1-1-.49,1.16,1.16,0,0,1-.28-1.05,3.15,3.15,0,0,1,.89-1.54c.16-.18.61-.6,1.34-1.27l3.89-3.65a32.21,32.21,0,0,1,4.21-3.32c-1-.1-1.78-.2-2.3-.29l-3.89-.67-.31,0-.31,0a1.5,1.5,0,0,1-.91-.5,1.22,1.22,0,0,1-.27-1c.15-.88.88-1.21,2.18-1,.44.07,1.1.22,2,.42s1.52.35,2,.43,1.23.2,2.22.34l2.23.35c1.91.33,2.79.92,2.65,1.75C75.07,36.7,74.55,37.19,73.6,37.63Z" style="fill:#9e005d"/><path d="M96.05,26.5c-.55.22-1.23.51-2,.86a30.1,30.1,0,0,0-6.39,4.86l-5.88,5.6-.07,0c.66.1,2.25.31,4.77.64,2,.25,3.56.48,4.73.68a14.82,14.82,0,0,1,2.59.6c1,.42,1.5,1,1.4,1.84a1.61,1.61,0,0,1-.86,1.29,2.19,2.19,0,0,1-1.44.21c-.26,0-.65-.13-1.17-.25s-.9-.2-1.16-.25q-2-.36-6.17-1c-2.74-.4-4.8-.72-6.16-1a2.26,2.26,0,0,1-1.37-.7,1.62,1.62,0,0,1-.39-1.47,4.54,4.54,0,0,1,1.24-2.15c.23-.25.86-.84,1.88-1.77L85,29.49a45.62,45.62,0,0,1,5.9-4.64c-1.42-.14-2.5-.28-3.23-.41l-5.44-.94-.44-.06a3,3,0,0,1-.43-.05,2.07,2.07,0,0,1-1.27-.69,1.72,1.72,0,0,1-.38-1.48c.21-1.23,1.23-1.69,3-1.37.62.1,1.54.3,2.76.59s2.13.49,2.75.6,1.73.28,3.12.48,2.42.37,3.11.49c2.68.46,3.91,1.28,3.71,2.45C98.1,25.2,97.37,25.88,96.05,26.5Z" style="fill:#9e005d"/></svg>