<svg xmlns="http://www.w3.org/2000/svg" xmlns:xlink="http://www.w3.org/1999/xlink" viewBox="0 0 106.22 153.66"><defs><linearGradient id="a" x1="20.93" y1="610.48" x2="-3.33" y2="562.34" gradientTransform="translate(1.94 -568.47)" gradientUnits="userSpaceOnUse"><stop offset="0" stop-color="#e7eeed" stop-opacity="0"/><stop offset="1" stop-color="#e7eeed"/></linearGradient><linearGradient id="b" x1="77.12" y1="611.41" x2="51.75" y2="563.84" xlink:href="#a"/></defs><path d="M52.6,152.48a50.19,50.19,0,0,0,20.06-2.92l.12,0a25.75,25.75,0,0,0,5.74-3,26.22,26.22,0,0,0,5.69-6,92.65,92.65,0,0,0,11.35-20.94,33.13,33.13,0,0,0,2.33-8C101,96,99,69.08,97.56,58.31c-.28-2.13-.58-4.27-1-6.38s-1.18-4.38-1.86-6.54l-3-9.62a63.7,63.7,0,0,0-2.39-6.71c-3.85-8.65-11.47-15.46-18.88-22A23.91,23.91,0,0,0,66.3,4,18.74,18.74,0,0,0,61.66,2.2a36,36,0,0,0-15-.6A18.43,18.43,0,0,0,41.9,3a24.21,24.21,0,0,0-4.3,2.76c-7.91,5.93-16,12.1-20.58,20.42a62.86,62.86,0,0,0-2.92,6.48L10.31,42c-.85,2.11-1.71,4.22-2.38,6.38s-1.11,4.17-1.56,6.27C4.06,65.24-.11,92,1.75,107.8a33.28,33.28,0,0,0,1.67,8.14,92.71,92.71,0,0,0,9.63,21.77,26.14,26.14,0,0,0,5.19,6.42,25.91,25.91,0,0,0,5.49,3.4l.12.05a50,50,0,0,0,19.76,4.52Z" style="fill:#e7aa6c"/><path d="M91.62,35.76c1,3.22,2,6.42,3,9.63.69,2.15,1.37,4.34,1.87,6.55s.77,4.25,1.06,6.37C99,69.08,101,96,97.89,111.69a33.57,33.57,0,0,1-2.32,8A92.69,92.69,0,0,1,84.21,140.6a26.05,26.05,0,0,1-5.7,6,25.13,25.13,0,0,1-5.74,3l-.12,0a50.05,50.05,0,0,1-20,2.9l-9-.36a50,50,0,0,1-19.77-4.52l-.12-.05a25.89,25.89,0,0,1-5.48-3.41,22.25,22.25,0,0,1-4.07-4.65,30.17,30.17,0,0,0,3.56,2s.08,0,.12.07a50.47,50.47,0,0,0,19.75,4.52l9,.37a50.16,50.16,0,0,0,20.06-2.92l.12,0a27.36,27.36,0,0,0,5.74-3,26.05,26.05,0,0,0,5.69-6,92.16,92.16,0,0,0,11.34-20.93,31.8,31.8,0,0,0,2.34-8C95,90,93,63,91.57,52.23,91.29,50.1,91,48,90.51,45.86s-1.16-4.38-1.85-6.54c-1-3.22-2-6.43-3-9.62A58.64,58.64,0,0,0,83.24,23a42.06,42.06,0,0,0-7.45-11.07A54.91,54.91,0,0,1,89.23,29.06a58.64,58.64,0,0,1,2.39,6.7Z" style="fill:#d09865"/><path d="M57.93,23.74a1.1,1.1,0,0,1-1.2-.28c-.79-.86-3.33.11-4.36.68a1.09,1.09,0,0,1-1.06-1.9c.49-.28,4.87-2.6,7-.25a1.1,1.1,0,0,1-.07,1.54A1,1,0,0,1,57.93,23.74Z" style="fill:#323c6b"/><path d="M41.48,47a1.1,1.1,0,0,1-1.31-.43c-.61-1-3.3-.49-4.42-.12a1.09,1.09,0,0,1-1.38-.68A1.07,1.07,0,0,1,35,44.43h0c.53-.18,5.25-1.68,6.95,1a1.09,1.09,0,0,1-.34,1.5Z" style="fill:#323c6b"/><path d="M72,48.45a1.07,1.07,0,0,1-1.3-.43c-.61-1-3.3-.49-4.42-.11a1.09,1.09,0,0,1-1.37-.69,1.06,1.06,0,0,1,.62-1.36l.06,0c.53-.18,5.26-1.68,7,1a1.09,1.09,0,0,1-.34,1.5.72.72,0,0,1-.2.09Z" style="fill:#323c6b"/><path d="M25.76,70.58a1.08,1.08,0,0,1-1.27-.38c-.69-1-3.36-.25-4.41.18h0a1.09,1.09,0,0,1-.81-2c.53-.22,5.13-2,7,.57A1.07,1.07,0,0,1,26,70.45a.75.75,0,0,1-.25.13Z" style="fill:#323c6b"/><path d="M55.29,68.29A1.09,1.09,0,0,1,54,67.92c-.69-1-3.35-.27-4.41.17a1.06,1.06,0,0,1-1.4-.53.14.14,0,0,1,0-.06,1.08,1.08,0,0,1,.58-1.42h0c.54-.21,5.13-2,7,.57a1.08,1.08,0,0,1-.24,1.52,1.15,1.15,0,0,1-.25.12Z" style="fill:#323c6b"/><path d="M52.51,98.41A1.08,1.08,0,0,1,51.24,98c-.69-1-3.33-.25-4.41.18a1,1,0,0,1-1.37-.47.61.61,0,0,1-.05-.12A1.09,1.09,0,0,1,46,96.2h0c.53-.21,5.14-2,7,.57a1.1,1.1,0,0,1-.24,1.52,1.31,1.31,0,0,1-.27.12Z" style="fill:#323c6b"/><path d="M80.19,76.61a1.1,1.1,0,0,1-1.27-.38c-.68-.94-3.26-.29-4.41.18a1.07,1.07,0,0,1-1.41-.57v0a1.08,1.08,0,0,1,.58-1.42c.53-.22,5.13-2,7,.55a1.08,1.08,0,0,1-.24,1.52,1,1,0,0,1-.25.14Z" style="fill:#323c6b"/><path d="M23.92,101a1.11,1.11,0,0,1-1.26-.35c-.7-.93-3.31-.2-4.4.29a1.16,1.16,0,0,1-1.44-.55A1.1,1.1,0,0,1,17.38,99c.52-.22,5.08-2.15,7,.38a1.09,1.09,0,0,1-.2,1.53h0a1,1,0,0,1-.27.14Z" style="fill:#323c6b"/><path d="M79.24,101.7a1.11,1.11,0,0,1-1.26-.35c-.71-.93-3.31-.19-4.4.29a1.05,1.05,0,0,1-1.41-.48l0-.07a1.09,1.09,0,0,1,.56-1.43h0c.51-.23,5.07-2.16,7,.37a1.09,1.09,0,0,1-.2,1.53,1,1,0,0,1-.27.14Z" style="fill:#323c6b"/><path d="M34.61,129.21a1.09,1.09,0,0,1-1.33-.46c-.59-1-3.28-.58-4.41-.24a1.09,1.09,0,0,1-1.36-.71h0a1.1,1.1,0,0,1,.72-1.36c.54-.16,5.3-1.53,6.93,1.21a1.09,1.09,0,0,1-.39,1.49l-.16.08Z" style="fill:#323c6b"/><path d="M65.1,131.48a1.1,1.1,0,0,1-1.33-.47c-.59-1-3.27-.58-4.41-.23a1.09,1.09,0,0,1-.64-2.09c.54-.16,5.3-1.54,6.93,1.21a1.09,1.09,0,0,1-.39,1.49Z" style="fill:#323c6b"/><path d="M73.12,150.56a51.39,51.39,0,0,1-20.56,3l-9-.37a50.83,50.83,0,0,1-20.19-4.62,27.1,27.1,0,0,1-5.83-3.6,27.64,27.64,0,0,1-5.42-6.67,93.67,93.67,0,0,1-9.74-22,33.63,33.63,0,0,1-1.72-8.41c-2-17,2.8-45,4.64-53.46.47-2.17.94-4.28,1.59-6.36s1.56-4.37,2.41-6.46l3.78-9.35a63.26,63.26,0,0,1,3-6.61C20.79,17,29.38,10.54,37,4.86A25.75,25.75,0,0,1,41.44,2,20.1,20.1,0,0,1,46.5.52a37.52,37.52,0,0,1,15.43.63A19.33,19.33,0,0,1,66.84,3a24.61,24.61,0,0,1,4.24,3.23c7.1,6.26,15.15,13.36,19.15,22.38a62.68,62.68,0,0,1,2.42,6.77l3,9.67c.68,2.16,1.38,4.39,1.88,6.64s.78,4.27,1.07,6.46C99.8,66.74,102.33,95,99,111.9a34.6,34.6,0,0,1-2.39,8.16,92.77,92.77,0,0,1-11.48,21.18,27.57,27.57,0,0,1-5.93,6.22,27,27,0,0,1-6,3.07ZM43.12,3.64c-.26.1-.51.21-.75.32a22.52,22.52,0,0,0-4.11,2.65C30.86,12.15,22.47,18.42,18,26.67a61.84,61.84,0,0,0-2.87,6.38l-3.78,9.34c-.83,2-1.69,4.17-2.35,6.29S7.9,52.74,7.44,54.87C5.15,65.39,1,92.14,2.83,107.68a32.22,32.22,0,0,0,1.64,7.95A90.75,90.75,0,0,0,14,137.15a25.48,25.48,0,0,0,5,6.16,24.78,24.78,0,0,0,5.26,3.25A48.9,48.9,0,0,0,43.65,151l9,.36a49.67,49.67,0,0,0,19.63-2.84,24.8,24.8,0,0,0,5.62-2.86A25.56,25.56,0,0,0,83.33,140a90.45,90.45,0,0,0,11.21-20.69,31.46,31.46,0,0,0,2.26-7.71c3.09-15.43,1.12-42.43-.3-53.1-.29-2.14-.58-4.24-1-6.28s-1.17-4.35-1.83-6.46l-3-9.62a63.66,63.66,0,0,0-2.34-6.59C84.44,20.92,76.59,14,69.66,7.87a22.88,22.88,0,0,0-3.89-3,17.55,17.55,0,0,0-4.38-1.65,35.25,35.25,0,0,0-14.53-.58,19.22,19.22,0,0,0-3.74,1Z" style="fill:#323c6b"/><path d="M13.31,89.6A120,120,0,0,0,13.2,106a23.36,23.36,0,0,0,.73,4.69,1.8,1.8,0,0,1-1.11,2.1l-.21,0a1.76,1.76,0,0,1-1.36-.2,1.71,1.71,0,0,1-.82-1.1,29.07,29.07,0,0,1-.81-5.26,122.36,122.36,0,0,1,.12-16.91,1.8,1.8,0,0,1,1.89-1.69,1.88,1.88,0,0,1,1.23.6A1.77,1.77,0,0,1,13.31,89.6Z" style="fill:#fff"/><path d="M14.79,117a1.71,1.71,0,0,1,.9,1c.26.72.53,1.43.81,2.16a1.8,1.8,0,0,1-3.36,1.27c-.28-.73-.57-1.48-.83-2.22A1.8,1.8,0,0,1,14.79,117Z" style="fill:#fff"/><rect x="41.04" y="33.69" width="24.14" height="1.46"/><path d="M6.32,45.93h-4A2.32,2.32,0,0,1,0,43.61V41.93a2.32,2.32,0,0,1,2.32-2.32h4v6.32Z"/><path d="M48.45,40.39s-2.11-9.83-21.16-9.83S2,42.05,2,50.21,6.12,72.13,17.76,72.13,53.59,55.35,48.45,40.39Z"/><path d="M46.87,41.15S44.9,32,27.17,32,3.68,42.7,3.68,50.29s3.79,20.4,14.63,20.4S51.65,55.08,46.87,41.15Z"/><path d="M45.65,41.73s-1.85-8.62-18.57-8.62S4.93,43.19,4.93,50.35,8.51,69.59,18.72,69.59,50.16,54.86,45.65,41.73Z" style="fill:url(#a)"/><path d="M99.89,45.93h4a2.32,2.32,0,0,0,2.32-2.32V41.93a2.32,2.32,0,0,0-2.32-2.32h-4v6.32Z"/><path d="M57.76,40.39s2.12-9.83,21.17-9.83,25.24,11.49,25.24,19.65-4.08,21.92-15.72,21.92S52.62,55.35,57.76,40.39Z"/><path d="M59.35,41.15s2-9.15,19.7-9.15,23.49,10.7,23.49,18.29-3.8,20.4-14.63,20.4S54.57,55.08,59.35,41.15Z"/><path d="M60.56,41.73s1.86-8.62,18.57-8.62,22.16,10.08,22.16,17.24-3.58,19.24-13.8,19.24S56.05,54.86,60.56,41.73Z" style="fill:url(#b)"/><path d="M58.14,43.11a.89.89,0,0,1-.89-.89,4.14,4.14,0,0,0-8.28,0,.9.9,0,0,1-1.79,0,5.93,5.93,0,0,1,11.85,0A.89.89,0,0,1,58.14,43.11Z"/><path d="M31.89,78.08c3.42,1.36,6.26,3.46,9,4.66A19,19,0,0,0,49,84.61a37.44,37.44,0,0,0,8.74-1c3.08-.65,6.19-1.53,9.73-2.48l.26.31a31.62,31.62,0,0,1-8.81,5.22,24.65,24.65,0,0,1-10.08,1.91,18.91,18.91,0,0,1-5.11-.9,17.63,17.63,0,0,1-4.61-2.36c-2.84-2-5.09-4.58-7.5-6.95Z" style="fill:#603813"/></svg>