<svg xmlns="http://www.w3.org/2000/svg" xmlns:xlink="http://www.w3.org/1999/xlink" viewBox="0 0 98 185.9"><defs><linearGradient id="a" x1="50.34" y1="64.89" x2="50.34" y2="1" gradientUnits="userSpaceOnUse"><stop offset="0" stop-color="#bf1a00"/><stop offset="0.03" stop-color="#c01e01"/><stop offset="0.05" stop-color="#c12902"/><stop offset="0.07" stop-color="#c53c05"/><stop offset="0.1" stop-color="#c95708"/><stop offset="0.12" stop-color="#cf790d"/><stop offset="0.14" stop-color="#d6a313"/><stop offset="0.16" stop-color="#ded51a"/><stop offset="0.17" stop-color="#e0e31c"/><stop offset="0.19" stop-color="#dce21d"/><stop offset="0.22" stop-color="#d0df1f"/><stop offset="0.24" stop-color="#bcda24"/><stop offset="0.26" stop-color="#a0d22a"/><stop offset="0.28" stop-color="#7cc931"/><stop offset="0.31" stop-color="#4fbe3b"/><stop offset="0.33" stop-color="#1cb046"/><stop offset="0.34" stop-color="#03aa4b"/><stop offset="0.36" stop-color="#03ab50"/><stop offset="0.39" stop-color="#03ac5d"/><stop offset="0.42" stop-color="#04af74"/><stop offset="0.45" stop-color="#05b493"/><stop offset="0.48" stop-color="#06b9bb"/><stop offset="0.51" stop-color="#07bfe8"/><stop offset="0.54" stop-color="#0ab9e4"/><stop offset="0.57" stop-color="#13a8da"/><stop offset="0.61" stop-color="#218cc8"/><stop offset="0.66" stop-color="#3565b0"/><stop offset="0.68" stop-color="#424da1"/><stop offset="0.7" stop-color="#4b4ca0"/><stop offset="0.75" stop-color="#644a9e"/><stop offset="0.8" stop-color="#8d469b"/><stop offset="0.84" stop-color="#b14398"/><stop offset="0.87" stop-color="#ba3d87"/><stop offset="0.94" stop-color="#d22c5a"/><stop offset="1" stop-color="#e81d2f"/></linearGradient></defs><path d="M51.13,184.75a48.92,48.92,0,0,0,19.56-2.84l.13,0a25.76,25.76,0,0,0,5.6-2.87A25.82,25.82,0,0,0,82,173.16,90.91,90.91,0,0,0,93,152.74,32.53,32.53,0,0,0,95.31,145c3-15.26,1.09-41.56-.32-52.06-.28-2.09-.57-4.17-1-6.23s-1.15-4.27-1.82-6.38l-3-9.39a60.52,60.52,0,0,0-2.33-6.54c-3.75-8.44-11.18-15.09-18.41-21.47a23.69,23.69,0,0,0-4-3A18.47,18.47,0,0,0,60,38.14a35.28,35.28,0,0,0-14.61-.58,18.83,18.83,0,0,0-4.66,1.33,24,24,0,0,0-4.19,2.7C28.78,47.37,20.84,53.4,16.42,61.51a60.74,60.74,0,0,0-2.85,6.32L9.88,77C9,79,8.21,81.06,7.56,83.17S6.47,87.23,6,89.29C3.77,99.64-.29,125.7,1.52,141.16a32.14,32.14,0,0,0,1.64,7.94,90.27,90.27,0,0,0,9.39,21.25,25.91,25.91,0,0,0,5.06,6.26A25.65,25.65,0,0,0,23,179.92l.12.05a48.84,48.84,0,0,0,19.28,4.41Z" fill="#e7aa6c"/><path d="M89.19,70.89c1,3.13,2,6.26,3,9.39.67,2.1,1.33,4.23,1.82,6.39s.75,4.14,1,6.22c1.43,10.5,3.38,36.8.32,52.07a32.9,32.9,0,0,1-2.26,7.78A91.13,91.13,0,0,1,82,173.16,25.61,25.61,0,0,1,76.41,179a24.33,24.33,0,0,1-5.6,2.88l-.12,0a48.91,48.91,0,0,1-19.55,2.83l-8.77-.35A48.85,48.85,0,0,1,23.08,180l-.11,0a25.52,25.52,0,0,1-5.35-3.34,21.48,21.48,0,0,1-4-4.54A27.43,27.43,0,0,0,17.12,174s.08,0,.12.07a49.31,49.31,0,0,0,19.26,4.41l8.78.36A49,49,0,0,0,64.85,176l.12,0a27,27,0,0,0,5.6-2.88,25.65,25.65,0,0,0,5.55-5.84,90,90,0,0,0,11.06-20.42A31.41,31.41,0,0,0,89.46,139c3.06-15.27,1.09-41.56-.32-52.07-.27-2.07-.57-4.14-1-6.22S87,76.47,86.3,74.36c-1-3.14-2-6.27-3-9.39A58.29,58.29,0,0,0,81,58.44a40.92,40.92,0,0,0-7.27-10.8A53.58,53.58,0,0,1,86.86,64.35a55.86,55.86,0,0,1,2.33,6.54Z" fill="#d09865"/><path d="M56.32,59.16a1.06,1.06,0,0,1-1.16-.27c-.77-.84-3.25.1-4.26.66a1.06,1.06,0,0,1-1-1.86c.48-.26,4.75-2.53,6.86-.23a1.07,1.07,0,0,1-.07,1.5A.9.9,0,0,1,56.32,59.16Z" fill="#323c6b"/><path d="M40.28,81.88A1.08,1.08,0,0,1,39,81.46c-.59-1-3.21-.48-4.31-.11a1.07,1.07,0,0,1-1.34-.67A1,1,0,0,1,34,79.35h0c.53-.18,5.13-1.64,6.79,1a1.06,1.06,0,0,1-.34,1.46A.76.76,0,0,1,40.28,81.88Z" fill="#323c6b"/><path d="M70.07,83.27a1.06,1.06,0,0,1-1.27-.42c-.6-1-3.22-.48-4.32-.11a1.06,1.06,0,0,1-1.33-.67,1,1,0,0,1,.6-1.33l.06,0c.52-.17,5.13-1.64,6.78,1a1,1,0,0,1-.33,1.46l-.19.09Z" fill="#323c6b"/><path d="M25,104.85a1,1,0,0,1-1.24-.36c-.67-.93-3.28-.25-4.31.17h0a1.06,1.06,0,1,1-.79-2c.51-.22,5-2,6.84.55a1.06,1.06,0,0,1-.24,1.48,1.08,1.08,0,0,1-.24.12Z" fill="#323c6b"/><path d="M53.75,102.62a1.07,1.07,0,0,1-1.24-.37c-.67-.92-3.26-.26-4.3.18a1,1,0,0,1-1.37-.53.17.17,0,0,0,0-.05,1.05,1.05,0,0,1,.58-1.38h0c.52-.21,5-2,6.84.55A1.07,1.07,0,0,1,54,102.5a1.15,1.15,0,0,1-.25.12Z" fill="#323c6b"/><path d="M51,132a1,1,0,0,1-1.23-.36c-.68-.93-3.26-.25-4.31.17a1,1,0,0,1-1.34-.46l0-.12a1.06,1.06,0,0,1,.58-1.38h0c.51-.21,5-2,6.84.55a1.07,1.07,0,0,1-.24,1.48A1.23,1.23,0,0,1,51,132Z" fill="#323c6b"/><path d="M78.05,110.73a1,1,0,0,1-1.24-.36c-.67-.92-3.19-.29-4.31.17a1.05,1.05,0,0,1-1.38-.55v0a1.06,1.06,0,0,1,.58-1.38c.51-.21,5-2,6.84.54a1.07,1.07,0,0,1-.24,1.48.8.8,0,0,1-.24.13Z" fill="#323c6b"/><path d="M23.15,134.53a1,1,0,0,1-1.22-.35c-.7-.9-3.24-.19-4.3.29a1.12,1.12,0,0,1-1.4-.54,1.06,1.06,0,0,1,.54-1.4c.51-.21,5-2.1,6.84.37a1.06,1.06,0,0,1-.19,1.49h0a1.16,1.16,0,0,1-.27.14Z" fill="#323c6b"/><path d="M77.11,135.21a1.06,1.06,0,0,1-1.22-.34c-.69-.91-3.23-.18-4.3.29a1,1,0,0,1-1.36-.47.25.25,0,0,1,0-.07,1.07,1.07,0,0,1,.54-1.4h0c.5-.22,5-2.11,6.85.37a1,1,0,0,1-.2,1.48.87.87,0,0,1-.27.14Z" fill="#323c6b"/><path d="M33.58,162.05a1,1,0,0,1-1.29-.45c-.59-1-3.21-.57-4.31-.23a1.05,1.05,0,0,1-1.32-.7h0a1.07,1.07,0,0,1,.7-1.33c.52-.16,5.17-1.5,6.75,1.18a1.06,1.06,0,0,1-.37,1.45l-.16.08Z" fill="#323c6b"/><path d="M63.32,164.26a1.07,1.07,0,0,1-1.29-.45c-.58-1-3.2-.57-4.3-.23a1.06,1.06,0,1,1-.63-2c.53-.16,5.17-1.51,6.76,1.17a1.07,1.07,0,0,1-.38,1.46A.8.8,0,0,1,63.32,164.26Z" fill="#323c6b"/><path d="M71.14,182.87a49.93,49.93,0,0,1-20,2.94l-8.77-.35A49.75,49.75,0,0,1,22.63,181a26.78,26.78,0,0,1-5.7-3.52,26.75,26.75,0,0,1-5.28-6.51,90.73,90.73,0,0,1-9.5-21.49,32.41,32.41,0,0,1-1.68-8.2C-1.48,124.64,3.2,97.33,5,89.08c.46-2.11.92-4.18,1.55-6.2s1.52-4.27,2.35-6.31l3.69-9.12A61.09,61.09,0,0,1,15.49,61c4.61-8.45,13-14.72,20.38-20.26a24.46,24.46,0,0,1,4.37-2.81,19.44,19.44,0,0,1,4.93-1.42,36.42,36.42,0,0,1,15.06.61A19.14,19.14,0,0,1,65,38.93a24,24,0,0,1,4.14,3.16c6.92,6.11,14.77,13,18.68,21.83a61.85,61.85,0,0,1,2.36,6.61l3,9.43c.67,2.1,1.35,4.28,1.84,6.47s.76,4.17,1,6.31c1.12,8.37,3.59,36,.3,52.42a33.57,33.57,0,0,1-2.32,8,90.77,90.77,0,0,1-11.21,20.65A26.87,26.87,0,0,1,77,179.85a26.15,26.15,0,0,1-5.83,3ZM41.89,39.55c-.26.1-.51.2-.74.31a22.52,22.52,0,0,0-4,2.59C29.92,47.85,21.74,54,17.36,62a59.72,59.72,0,0,0-2.8,6.22l-3.69,9.11c-.81,2-1.65,4.07-2.29,6.14s-1.06,4-1.5,6C4.84,99.79.8,125.89,2.58,141a31.14,31.14,0,0,0,1.6,7.76,88.75,88.75,0,0,0,9.28,21,24.59,24.59,0,0,0,4.84,6A24.26,24.26,0,0,0,23.43,179a47.82,47.82,0,0,0,19,4.35l8.77.36a48.52,48.52,0,0,0,19.15-2.77,25,25,0,0,0,5.48-2.79,25,25,0,0,0,5.31-5.6,89.18,89.18,0,0,0,10.94-20.18,31,31,0,0,0,2.2-7.53c3-15,1.09-41.39-.3-51.8-.28-2.09-.56-4.13-1-6.13s-1.14-4.24-1.79-6.3l-3-9.38a58.5,58.5,0,0,0-2.29-6.43C82.19,56.4,74.53,49.64,67.77,43.67A23.15,23.15,0,0,0,64,40.78a16.83,16.83,0,0,0-4.27-1.61,34.6,34.6,0,0,0-14.18-.57,18.74,18.74,0,0,0-3.64.95Z" fill="#323c6b"/><path d="M12.8,123.41a117.32,117.32,0,0,0-.11,16A23.62,23.62,0,0,0,13.4,144a1.75,1.75,0,0,1-1.07,2.05l-.21,0A1.74,1.74,0,0,1,10,144.83a28.66,28.66,0,0,1-.79-5.13,119.56,119.56,0,0,1,.11-16.5,1.76,1.76,0,0,1,1.85-1.64,1.78,1.78,0,0,1,1.2.58A1.74,1.74,0,0,1,12.8,123.41Z" fill="#fff"/><path d="M14.24,150.08a1.74,1.74,0,0,1,.89,1c.24.7.51,1.39.78,2.1a1.75,1.75,0,1,1-3.27,1.24c-.28-.71-.56-1.45-.81-2.17a1.79,1.79,0,0,1,1-2.24A1.85,1.85,0,0,1,14.24,150.08Z" fill="#fff"/><circle cx="32.68" cy="91.9" r="5.74" fill="#323c6b"/><circle cx="33.47" cy="90.02" r="2.25" fill="#b1b6c9"/><circle cx="66.5" cy="91.9" r="5.74" fill="#323c6b"/><circle cx="65.7" cy="90.06" r="2.21" fill="#b1b6c9"/><path d="M23.7,110.81c12.28,4,35.65,3.71,50.39-2.18C82.94,105.1,69,134,44.9,134,27.81,134,17.81,108.89,23.7,110.81Z" fill="#603813" stroke="#323c6b" stroke-miterlimit="10"/><path d="M23.57,111.13c12.22,4,35.47,3.68,50.12-2.17.34-.14,1.57-.58,2.13,0,.83.79-.28,4.51-.57,5.11-2.26,4.74-13.81,7.6-28.8,7.68-11.17,0-21.68-1.51-23.08-5.66-.07-.22-1.89-4.2-.9-4.88A1.27,1.27,0,0,1,23.57,111.13Z" fill="#fff"/><path d="M23.7,110.81c12.28,4,35.65,3.71,50.39-2.18C82.94,105.1,69,134,44.9,134,27.81,134,17.81,108.89,23.7,110.81Z" fill="none" stroke="#323c6b" stroke-miterlimit="10" stroke-width="2"/><path d="M62.6,57.39a3.75,3.75,0,0,0-.05-.47c-.06-6.08-1.77-11.39-5.89-15.57.07-6.8-1.59-12.14-5.82-15.39A142.27,142.27,0,0,0,41.71,1.81a1.24,1.24,0,0,0-2.41.45c-.72,7.52-.93,14.52.25,20a15.45,15.45,0,0,0,.18,13.57,19.57,19.57,0,0,0,.18,14.18c-2.33,4.69-.79,9.08-.25,11.15C41.92,68.18,62.93,64.31,62.6,57.39Z" stroke="#323c6b" stroke-miterlimit="10" stroke-width="2" fill="url(#a)"/><path d="M51.19,26.06a30.55,30.55,0,0,1-11.55-3.85" fill="none" stroke="#323c6b" stroke-miterlimit="10" stroke-width="2"/><path d="M56.75,41c-4.28.86-14.54-2.56-17.45-5.13" fill="none" stroke="#323c6b" stroke-miterlimit="10" stroke-width="2"/><path d="M62.74,57.29c-4.28.85-16.26-.86-22.94-7" fill="none" stroke="#323c6b" stroke-miterlimit="10" stroke-width="2"/><path d="M30.27,66.26a19,19,0,0,0,9.09-9A12.87,12.87,0,1,1,60.9,71a16.73,16.73,0,0,1-15.22,6c-3.07-.39-10-2.94-15.25-5a3.1,3.1,0,0,1-.16-5.7Z" fill="aqua"/><path d="M58.27,52.3a12.87,12.87,0,0,0-18.91,4.92,19,19,0,0,1-9.09,9,3.1,3.1,0,0,0,.16,5.7C35.68,74,42.6,76.58,45.67,77A16.75,16.75,0,0,0,60.9,71,12.87,12.87,0,0,0,58.27,52.3Zm-.55,12.21a12,12,0,0,1-10,6.28c-2.26.13-7.62-.76-11.71-1.54a2.25,2.25,0,0,1-1-4,13.43,13.43,0,0,0,5.18-7.65,9.47,9.47,0,1,1,17.54,6.94Z" fill="#29abe2"/><path d="M45.46,63.68a2.73,2.73,0,0,1-2.86-4.11,12,12,0,0,1,7.57-5.71s2.77-.54,3.39,2-2.37,3.32-2.37,3.32a6.85,6.85,0,0,0-3.93,3.2,2.7,2.7,0,0,1-1.8,1.25Z" fill="#fff"/></svg>