<?xml version="1.0" standalone="no"?>
<!DOCTYPE svg PUBLIC "-//W3C//DTD SVG 20010904//EN"
 "http://www.w3.org/TR/2001/REC-SVG-20010904/DTD/svg10.dtd">
<svg version="1.0" xmlns="http://www.w3.org/2000/svg"
 width="1240.000000pt" height="1240.000000pt" viewBox="0 0 1240.000000 1240.000000"
 preserveAspectRatio="xMidYMid meet">
<metadata>
Created by potrace 1.11, written by Peter Selinger 2001-2013
</metadata>
<g transform="translate(0.000000,1240.000000) scale(0.100000,-0.100000)"
fill="#000000" stroke="none">
<path d="M7243 12381 c-35 -10 -63 -16 -63 -13 0 2 -7 -1 -15 -8 -8 -7 -15
-10 -15 -7 0 3 -24 -1 -52 -10 -29 -8 -57 -16 -63 -18 -5 -1 -17 -5 -25 -8
-12 -4 -40 -12 -80 -22 -3 0 -45 -14 -94 -29 -49 -16 -94 -29 -100 -31 -6 -1
-18 -5 -26 -8 -8 -3 -51 -17 -95 -32 -44 -14 -89 -30 -100 -35 -11 -5 -42 -17
-70 -26 -27 -9 -61 -21 -75 -27 -14 -6 -27 -11 -30 -12 -3 -1 -18 -7 -35 -14
-16 -7 -34 -14 -40 -15 -5 -1 -31 -11 -56 -23 -25 -11 -62 -26 -82 -32 -20 -7
-39 -17 -42 -22 -4 -5 -12 -9 -20 -9 -8 0 -53 -18 -102 -41 -48 -22 -108 -50
-133 -61 -79 -36 -265 -129 -277 -140 -7 -6 -13 -7 -13 -4 0 4 -13 -2 -29 -13
-16 -12 -33 -21 -38 -21 -15 0 -47 -51 -51 -80 -3 -33 31 -77 68 -85 19 -4 70
17 203 84 97 49 177 87 177 83 0 -4 4 -2 8 4 7 10 168 84 327 149 50 20 99 41
110 46 20 8 135 52 145 54 3 1 16 6 30 12 14 6 61 23 105 38 44 15 89 31 100
37 12 5 30 11 40 13 11 2 20 4 20 5 0 1 7 3 15 5 8 2 34 11 58 20 24 8 51 16
60 18 9 1 22 5 27 9 6 3 26 9 45 14 50 11 50 11 53 14 1 1 9 3 17 5 8 1 49 13
90 25 41 12 89 25 105 27 17 3 38 9 47 14 9 5 21 8 25 7 17 -4 91 23 103 37
14 17 23 71 15 95 -14 44 -84 57 -172 31z"/>
<path d="M7887 11984 c-1 -1 -33 -5 -72 -9 -38 -4 -72 -8 -75 -10 -3 -2 -26
-6 -50 -10 -25 -3 -66 -12 -93 -20 -26 -8 -51 -14 -55 -15 -4 0 -32 -7 -62
-16 -30 -9 -59 -17 -65 -19 -5 -1 -17 -5 -25 -8 -8 -4 -24 -8 -35 -10 -11 -2
-40 -10 -65 -17 -25 -8 -48 -14 -52 -16 -5 -1 -9 -2 -10 -4 -2 -1 -10 -3 -18
-5 -40 -8 -453 -134 -502 -154 -16 -6 -28 -8 -28 -5 0 4 -6 2 -12 -3 -7 -6
-49 -22 -93 -37 -103 -36 -232 -83 -270 -100 -26 -12 -57 -25 -75 -31 -9 -3
-54 -23 -113 -48 -31 -15 -61 -27 -65 -29 -43 -16 -301 -156 -379 -205 -29
-18 -56 -33 -60 -33 -4 -1 -24 -14 -43 -30 -19 -17 -40 -30 -46 -30 -7 0 -14
-4 -16 -8 -1 -4 -21 -21 -43 -37 -99 -73 -177 -136 -229 -185 -137 -128 -261
-256 -523 -539 -37 -40 -96 -102 -130 -138 -35 -35 -63 -65 -63 -67 0 -2 -24
-28 -52 -58 -29 -31 -98 -104 -153 -163 -55 -59 -111 -119 -125 -134 -14 -14
-53 -57 -85 -96 -33 -38 -63 -72 -66 -75 -17 -14 -232 -307 -239 -326 -5 -12
-12 -23 -17 -25 -7 -4 -51 -66 -78 -111 -28 -48 -130 -204 -136 -208 -3 -3 -9
-15 -13 -27 -4 -13 -12 -23 -17 -23 -5 0 -9 -5 -9 -10 0 -9 -61 -110 -87 -146
-8 -10 -20 -31 -54 -91 -10 -18 -43 -73 -72 -121 -29 -48 -56 -94 -60 -102 -4
-8 -18 -33 -32 -55 -14 -22 -31 -51 -38 -65 -6 -14 -14 -27 -17 -30 -8 -8 -27
-41 -51 -90 -13 -25 -25 -47 -28 -50 -7 -6 -49 -82 -66 -117 -5 -13 -13 -23
-17 -23 -5 0 -8 -6 -8 -13 0 -7 -28 -25 -63 -40 -67 -29 -93 -47 -165 -112
-65 -58 -145 -184 -157 -245 -2 -11 -6 -24 -9 -28 -20 -33 -24 -223 -6 -278
11 -32 9 -39 -22 -94 -4 -8 -12 -25 -18 -37 -5 -13 -45 -95 -89 -182 -43 -88
-76 -163 -73 -166 3 -3 0 -5 -6 -5 -7 0 -12 -5 -12 -11 0 -7 -15 -44 -34 -83
-19 -39 -55 -118 -81 -176 -25 -58 -54 -121 -63 -140 -9 -19 -17 -39 -18 -45
-2 -5 -27 -67 -58 -138 -30 -70 -55 -131 -56 -135 -1 -4 -10 -27 -21 -51 -10
-24 -17 -46 -15 -49 3 -2 -2 -11 -10 -19 -8 -8 -12 -19 -9 -24 4 -5 2 -9 -3
-9 -5 0 -9 -6 -9 -12 0 -7 -19 -65 -43 -128 -23 -63 -43 -119 -44 -125 -1 -5
-4 -14 -8 -20 -3 -5 -13 -35 -22 -65 -8 -30 -34 -118 -57 -195 -23 -77 -42
-147 -44 -155 -1 -8 -5 -22 -8 -30 -3 -8 -9 -28 -13 -45 -4 -16 -8 -32 -9 -35
-1 -3 -5 -25 -10 -50 -5 -25 -9 -47 -10 -50 -4 -21 -15 -81 -20 -110 -11 -65
-25 -193 -30 -280 -2 -36 -7 -121 -12 -190 -13 -206 -7 -1015 8 -1015 2 0 7
-51 13 -135 3 -41 8 -91 10 -110 3 -19 7 -57 10 -84 7 -61 14 -115 27 -191 6
-33 12 -76 14 -95 7 -49 40 -238 44 -247 1 -3 3 -9 5 -20 1 -5 8 -31 15 -59 7
-29 14 -58 15 -65 2 -8 6 -21 9 -29 3 -8 8 -24 10 -35 10 -36 65 -179 93 -240
15 -33 28 -62 29 -65 5 -27 169 -270 187 -278 5 -2 8 -8 8 -13 0 -13 24 -39
185 -202 157 -159 220 -216 349 -317 10 -8 27 -23 38 -32 10 -10 23 -18 28
-18 6 0 10 -4 10 -10 0 -5 7 -10 15 -10 8 0 15 -4 15 -8 0 -4 20 -21 45 -36
25 -16 45 -32 45 -36 0 -4 14 -13 30 -20 17 -7 30 -16 30 -21 0 -5 5 -9 10 -9
6 0 44 -22 85 -50 41 -27 77 -50 81 -50 3 0 18 -8 32 -19 90 -62 464 -246 476
-233 3 3 6 0 6 -6 0 -7 3 -11 8 -10 4 1 23 -5 42 -14 19 -9 63 -28 97 -42 35
-15 89 -38 120 -52 143 -65 164 -74 169 -74 3 0 35 -14 71 -30 35 -17 67 -30
70 -30 2 0 34 -14 70 -30 35 -17 66 -30 68 -30 3 0 30 -12 62 -26 91 -41 93
-42 192 -79 52 -20 102 -37 110 -38 9 -1 22 -6 29 -10 6 -5 12 -5 12 0 0 4 4
3 8 -3 4 -6 36 -18 72 -28 36 -9 81 -22 100 -27 19 -5 40 -11 45 -13 6 -1 19
-5 30 -9 11 -3 31 -8 45 -11 14 -2 59 -12 100 -21 41 -9 89 -19 105 -21 17 -3
41 -7 55 -11 28 -7 34 -8 100 -16 25 -4 63 -9 85 -13 22 -3 56 -8 75 -9 19 -2
35 -4 35 -5 0 -5 213 -13 365 -14 169 -1 288 6 351 20 13 3 35 7 49 9 60 8
170 36 215 55 45 18 84 32 90 31 3 -1 28 10 55 24 28 14 50 22 50 18 0 -5 4
-3 8 2 4 6 34 23 67 39 77 37 203 113 233 139 12 11 22 17 22 12 0 -4 8 -1 18
7 9 8 62 46 117 83 168 115 357 255 406 300 9 8 18 15 22 15 3 0 18 11 33 25
15 14 41 36 57 48 16 12 34 27 40 32 41 34 154 132 163 140 193 172 415 391
584 575 58 63 115 125 128 138 12 13 46 54 74 90 28 37 54 68 59 70 5 2 9 10
9 18 0 8 4 14 8 14 5 0 15 12 23 28 8 15 19 32 24 39 6 7 16 19 23 27 6 8 12
18 12 21 0 9 54 90 63 93 4 2 7 12 7 23 0 10 4 19 8 19 5 0 14 10 20 22 7 13
20 37 30 53 10 17 33 57 52 90 19 33 43 74 52 90 45 76 298 594 298 608 0 10
5 17 10 17 6 0 10 5 10 11 0 5 9 29 19 52 10 23 38 87 61 142 54 129 61 146
99 233 17 40 33 80 34 90 2 9 11 35 21 57 10 22 31 76 47 120 16 44 32 87 36
95 3 8 7 17 8 20 1 3 7 19 14 35 7 17 14 35 15 40 1 6 12 37 25 70 13 33 64
177 113 320 86 249 113 332 212 645 8 25 29 92 46 150 18 58 42 139 55 181 13
41 27 90 30 109 3 18 8 37 12 43 3 5 11 30 18 55 80 283 96 340 100 357 9 44
11 50 18 63 5 6 6 12 4 12 -3 0 5 37 18 83 12 45 23 87 24 92 5 27 13 62 18
75 3 8 7 26 9 40 5 33 12 65 14 65 1 0 3 7 5 15 1 8 8 42 16 75 7 33 14 67 15
75 2 8 6 31 10 50 4 19 9 42 10 50 6 29 16 106 20 140 1 19 4 35 4 35 2 0 5
24 14 110 9 95 25 309 31 415 2 36 6 101 9 145 3 44 8 118 11 165 3 47 8 126
11 175 3 50 7 119 9 155 3 36 8 115 12 175 9 134 10 593 1 655 -6 41 -10 71
-23 165 -2 17 -6 40 -9 51 -2 12 -7 37 -10 55 -3 19 -8 45 -12 59 -3 14 -7 34
-9 45 -2 11 -13 56 -25 100 -12 44 -24 89 -27 100 -3 11 -7 27 -10 35 -2 8 -4
15 -3 15 0 0 -11 34 -26 75 -14 41 -27 80 -28 85 -5 25 -60 171 -68 180 -4 5
-8 15 -8 23 0 13 -36 103 -86 210 -13 29 -24 54 -24 56 0 2 -8 21 -17 42 -9
22 -16 42 -15 47 1 4 -2 7 -8 7 -5 0 -10 4 -10 10 0 5 -45 102 -100 215 -55
114 -100 210 -100 215 0 4 -3 10 -8 12 -4 2 -22 32 -40 68 -76 150 -173 336
-185 355 -6 11 -24 39 -39 62 -16 23 -28 46 -28 52 0 6 -4 11 -8 11 -4 0 -16
15 -27 33 -37 63 -184 212 -275 281 -30 22 -56 44 -58 49 -2 4 -9 7 -16 7 -7
0 -21 9 -31 20 -10 11 -24 20 -32 20 -7 0 -13 3 -13 8 0 4 -17 16 -37 27 -20
11 -41 25 -47 30 -6 6 -27 19 -46 29 -19 9 -61 33 -94 52 -32 19 -64 34 -72
34 -8 0 -14 3 -14 8 0 4 -15 14 -32 21 -18 8 -65 29 -104 48 -40 18 -75 33
-79 33 -4 0 -21 7 -38 15 -38 17 -197 73 -223 78 -11 2 -26 7 -34 10 -15 6
-118 34 -155 42 -11 3 -40 9 -65 15 -82 18 -149 29 -225 35 -52 5 -195 11
-198 9z"/>
<path d="M4833 11217 c-15 -12 -65 -58 -110 -104 -80 -79 -83 -83 -79 -122 2
-22 11 -47 19 -55 19 -20 61 -30 91 -22 24 6 182 155 209 197 49 78 -56 163
-130 106z"/>
<path d="M9057 1612 c-9 -15 -31 -44 -49 -64 -59 -67 -68 -82 -68 -113 0 -39
22 -70 58 -83 41 -14 86 10 130 70 20 26 40 48 44 48 4 0 8 5 8 10 0 6 9 19
20 30 11 11 20 24 20 29 0 13 -67 63 -111 83 -35 16 -36 16 -52 -10z"/>
<path d="M8688 1189 c-7 -4 -70 -63 -139 -131 -168 -165 -372 -352 -422 -387
-11 -8 -35 -29 -54 -48 -19 -18 -38 -33 -41 -33 -4 0 -27 -18 -52 -40 -54 -48
-39 -37 -180 -143 -63 -48 -119 -91 -125 -95 -5 -5 -14 -9 -18 -9 -5 -1 -17
-11 -26 -22 -10 -12 -22 -21 -27 -21 -5 0 -28 -15 -50 -33 -23 -17 -51 -39
-63 -47 -49 -34 -43 -117 10 -143 18 -8 39 -13 48 -12 9 2 21 4 27 4 10 1 58
35 101 71 7 5 15 10 18 10 3 0 72 50 153 112 127 96 184 140 287 226 38 31
150 126 161 137 6 5 42 38 80 71 131 117 347 326 404 390 38 44 40 91 6 123
-26 24 -73 34 -98 20z"/>
</g>
</svg>
