<svg xmlns="http://www.w3.org/2000/svg" viewBox="0 0 101.9 153.66"><g id="Layer_2" data-name="Layer 2"><g id="Layer_1-2" data-name="Layer 1"><g id="Emojis"><g id="mask"><path d="M53.44,152.48a50.14,50.14,0,0,0,20-2.92l.12,0a26,26,0,0,0,5.75-3,26.22,26.22,0,0,0,5.69-6,92.62,92.62,0,0,0,11.34-20.94,33.13,33.13,0,0,0,2.33-8c3.13-15.65,1.13-42.61-.32-53.38-.29-2.13-.59-4.27-1.05-6.38s-1.18-4.38-1.86-6.54l-3-9.62a61.52,61.52,0,0,0-2.39-6.71c-3.84-8.65-11.46-15.46-18.87-22A23.91,23.91,0,0,0,67.14,4,19,19,0,0,0,62.49,2.2a36,36,0,0,0-15-.6A18.55,18.55,0,0,0,42.73,3a24.49,24.49,0,0,0-4.29,2.76c-7.92,5.93-16.06,12.1-20.58,20.42a62.93,62.93,0,0,0-2.93,6.48L11.15,42c-.86,2.11-1.71,4.22-2.38,6.38S7.66,52.52,7.2,54.62C4.89,65.24.73,92,2.58,107.8a33.3,33.3,0,0,0,1.68,8.14,92.3,92.3,0,0,0,9.63,21.77,26.14,26.14,0,0,0,5.19,6.42,25.85,25.85,0,0,0,5.48,3.4l.12.05a50,50,0,0,0,19.76,4.52Z" fill="#e7aa6c"/><path d="M92.45,35.76c1,3.22,2,6.42,3,9.63.69,2.15,1.37,4.34,1.87,6.55s.77,4.25,1.05,6.37c1.46,10.77,3.46,37.73.32,53.38a33.55,33.55,0,0,1-2.31,8A93.48,93.48,0,0,1,85.05,140.6a26.48,26.48,0,0,1-5.7,6,25.34,25.34,0,0,1-5.74,3l-.12,0a50.1,50.1,0,0,1-20,2.9l-9-.36a50,50,0,0,1-19.77-4.52l-.11-.05a26,26,0,0,1-5.49-3.41A22.85,22.85,0,0,1,15,139.48a30.17,30.17,0,0,0,3.56,2s.09,0,.12.07a50.47,50.47,0,0,0,19.75,4.52l9,.37A50.19,50.19,0,0,0,67.5,143.5l.12,0a27.61,27.61,0,0,0,5.74-3,26.27,26.27,0,0,0,5.69-6,92.16,92.16,0,0,0,11.34-20.93,31.78,31.78,0,0,0,2.33-8C95.86,90,93.84,63,92.4,52.23c-.28-2.13-.58-4.25-1.05-6.37s-1.17-4.38-1.86-6.54c-1-3.22-2-6.43-3-9.62A58.64,58.64,0,0,0,84.07,23a42,42,0,0,0-7.44-11.07A55,55,0,0,1,90.06,29.06a58.64,58.64,0,0,1,2.39,6.7Z" fill="#d09865"/><path d="M58.76,23.74a1.08,1.08,0,0,1-1.19-.28c-.8-.86-3.34.11-4.37.68a1.09,1.09,0,0,1-1.05-1.9c.49-.28,4.87-2.6,7-.25a1.08,1.08,0,0,1-.07,1.54A.92.92,0,0,1,58.76,23.74Z" fill="#323c6b"/><path d="M42.31,47A1.09,1.09,0,0,1,41,46.6c-.62-1-3.3-.49-4.43-.12a1.08,1.08,0,0,1-1.37-.68,1.07,1.07,0,0,1,.65-1.37h0c.53-.18,5.26-1.68,7,1a1.09,1.09,0,0,1-.34,1.5Z" fill="#323c6b"/><path d="M72.85,48.45A1.08,1.08,0,0,1,71.54,48c-.61-1-3.29-.49-4.42-.11a1.09,1.09,0,0,1-1.37-.69,1.06,1.06,0,0,1,.63-1.36l.06,0c.53-.18,5.25-1.68,7,1a1.09,1.09,0,0,1-.34,1.5.88.88,0,0,1-.2.09Z" fill="#323c6b"/><path d="M26.6,70.58a1.08,1.08,0,0,1-1.27-.38c-.69-1-3.36-.25-4.42.18h0a1.09,1.09,0,0,1-.8-2c.53-.22,5.13-2,7,.57a1.09,1.09,0,0,1-.24,1.51.85.85,0,0,1-.25.13Z" fill="#323c6b"/><path d="M56.13,68.29a1.09,1.09,0,0,1-1.27-.37c-.69-1-3.35-.27-4.42.17a1.06,1.06,0,0,1-1.4-.53s0,0,0-.06a1.08,1.08,0,0,1,.59-1.42h0c.54-.21,5.13-2,7,.57a1.1,1.1,0,0,1-.24,1.52,1.42,1.42,0,0,1-.25.12Z" fill="#323c6b"/><path d="M53.35,98.41A1.08,1.08,0,0,1,52.08,98c-.69-1-3.34-.25-4.42.18a1,1,0,0,1-1.37-.47.61.61,0,0,1,0-.12,1.09,1.09,0,0,1,.6-1.42h0c.53-.21,5.13-2,7,.57a1.09,1.09,0,0,1-.24,1.52,1.23,1.23,0,0,1-.26.12Z" fill="#323c6b"/><path d="M81,76.61a1.1,1.1,0,0,1-1.27-.38c-.69-.94-3.27-.29-4.42.18a1.07,1.07,0,0,1-1.41-.57v0a1.08,1.08,0,0,1,.59-1.42c.53-.22,5.13-2,7,.55a1.1,1.1,0,0,1-.24,1.52,1.23,1.23,0,0,1-.25.14Z" fill="#323c6b"/><path d="M24.75,101a1.09,1.09,0,0,1-1.25-.35c-.71-.93-3.32-.2-4.41.29a1.14,1.14,0,0,1-1.43-.55A1.1,1.1,0,0,1,18.21,99c.52-.22,5.08-2.15,7,.38a1.1,1.1,0,0,1-.2,1.53h0a1,1,0,0,1-.28.14Z" fill="#323c6b"/><path d="M80.07,101.7a1.09,1.09,0,0,1-1.25-.35c-.71-.93-3.32-.19-4.41.29a1,1,0,0,1-1.4-.48l0-.07a1.07,1.07,0,0,1,.55-1.43h0c.51-.23,5.08-2.16,7,.37a1.1,1.1,0,0,1-.2,1.53,1,1,0,0,1-.28.14Z" fill="#323c6b"/><path d="M35.44,129.21a1.08,1.08,0,0,1-1.32-.46c-.6-1-3.28-.58-4.41-.24a1.08,1.08,0,0,1-1.36-.71h0a1.1,1.1,0,0,1,.72-1.36c.53-.16,5.3-1.53,6.92,1.21a1.09,1.09,0,0,1-.38,1.49l-.17.08Z" fill="#323c6b"/><path d="M65.93,131.48a1.09,1.09,0,0,1-1.32-.47c-.6-1-3.28-.58-4.41-.23a1.09,1.09,0,0,1-.64-2.09c.53-.16,5.3-1.54,6.92,1.21a1.09,1.09,0,0,1-.38,1.49Z" fill="#323c6b"/><path d="M74,150.56a51.34,51.34,0,0,1-20.55,3l-9-.37a50.82,50.82,0,0,1-20.18-4.62,27.41,27.41,0,0,1-5.84-3.6A27.59,27.59,0,0,1,13,138.31a93.26,93.26,0,0,1-9.74-22,34.09,34.09,0,0,1-1.73-8.41c-2-17,2.8-45,4.64-53.46.48-2.17,1-4.28,1.59-6.36s1.57-4.37,2.41-6.46l3.79-9.35a61.25,61.25,0,0,1,3-6.61C21.63,17,30.21,10.54,37.79,4.86A25.46,25.46,0,0,1,42.28,2a20.14,20.14,0,0,1,5-1.45,37.52,37.52,0,0,1,15.43.63A19.05,19.05,0,0,1,67.67,3a24.68,24.68,0,0,1,4.25,3.23C79,12.5,87.06,19.6,91.07,28.62a64.9,64.9,0,0,1,2.42,6.77l3,9.67c.68,2.16,1.38,4.39,1.88,6.64s.79,4.27,1.08,6.46c1.15,8.58,3.69,36.86.31,53.74a34.11,34.11,0,0,1-2.38,8.16,93.2,93.2,0,0,1-11.49,21.18A27.57,27.57,0,0,1,80,147.46a26.76,26.76,0,0,1-6,3.07ZM44,3.64,43.2,4a22.86,22.86,0,0,0-4.11,2.65c-7.4,5.54-15.79,11.81-20.28,20.06A61.77,61.77,0,0,0,16,33.05l-3.78,9.34c-.83,2-1.69,4.17-2.35,6.29s-1.09,4.06-1.54,6.19C6,65.39,1.84,92.14,3.67,107.68a31.33,31.33,0,0,0,1.64,7.95,90.75,90.75,0,0,0,9.51,21.52,25.44,25.44,0,0,0,5,6.16A24.78,24.78,0,0,0,25,146.56,49,49,0,0,0,44.49,151l9,.36a49.62,49.62,0,0,0,19.62-2.84,24.87,24.87,0,0,0,5.63-2.86A25.78,25.78,0,0,0,84.17,140a91.22,91.22,0,0,0,11.21-20.69,31.46,31.46,0,0,0,2.26-7.71c3.09-15.43,1.12-42.43-.31-53.1-.28-2.14-.58-4.24-1-6.28s-1.17-4.35-1.84-6.46l-3-9.62a61.46,61.46,0,0,0-2.35-6.59C85.28,20.92,77.42,14,70.49,7.87a23.21,23.21,0,0,0-3.88-3,17.7,17.7,0,0,0-4.38-1.65,35.3,35.3,0,0,0-14.54-.58,19.31,19.31,0,0,0-3.73,1Z" fill="#323c6b"/><path d="M14.15,89.6A118.39,118.39,0,0,0,14,106a24.09,24.09,0,0,0,.73,4.69,1.79,1.79,0,0,1-1.1,2.1l-.21,0a1.76,1.76,0,0,1-1.36-.2,1.67,1.67,0,0,1-.82-1.1,27.42,27.42,0,0,1-.81-5.26,120.81,120.81,0,0,1,.11-16.91,1.8,1.8,0,0,1,1.89-1.69,1.88,1.88,0,0,1,1.24.6A1.82,1.82,0,0,1,14.15,89.6Z" fill="#fff"/><path d="M15.62,117a1.73,1.73,0,0,1,.91,1c.25.72.53,1.43.81,2.16A1.8,1.8,0,0,1,14,121.4c-.28-.73-.57-1.48-.83-2.22A1.8,1.8,0,0,1,15.62,117Z" fill="#fff"/><circle cx="34.53" cy="57.3" r="5.89" fill="#323c6b"/><circle cx="35.34" cy="55.38" r="2.3" fill="#b1b6c9"/><circle cx="69.19" cy="57.3" r="5.89" fill="#323c6b"/><circle cx="68.37" cy="55.41" r="2.27" fill="#b1b6c9"/><path d="M86.72,110.38c-2.62,0-4-2.71-2.1-4.3l16.82-11.86a6.35,6.35,0,0,1,0,4.69L88.82,109.64a3.26,3.26,0,0,1-2.1.74Z" fill="#fcd0a2"/><path d="M17.09,110.38a3.26,3.26,0,0,1-2.1-.74L1.66,100.1A3.84,3.84,0,0,1,.07,97.4a15.19,15.19,0,0,1,.07-3.48,1,1,0,0,1,1.65-.7l17.4,12.86c1.87,1.59.52,4.3-2.1,4.3Z" fill="#ffe3c0"/><path d="M86.72,73.81c-2.62,0-4-2.7-2.1-4.29l14.82-12.3s2,2,1,6L88.82,73.08a3.25,3.25,0,0,1-2.1.73Z" fill="#fcd0a2"/><path d="M17.09,73.81a3.25,3.25,0,0,1-2.1-.73L4.44,64.22c-1-3,1-6,1-6l13.75,11.3C21.06,71.11,19.71,73.81,17.09,73.81Z" fill="#ffe3c0"/><path d="M89.69,72.34v29.45l-2.43,8.59-9.65,3.08a89.71,89.71,0,0,1-51.41,0L16,110.22a2.58,2.58,0,0,1-1.92-2.36V71.3a2.69,2.69,0,0,1,2.5-2.49l15.05-2a121.08,121.08,0,0,1,40.47,0l13.55,1.81Z" fill="#d5e8fe"/><path d="M89.69,71.3v36.56a2.58,2.58,0,0,1-1.92,2.36l-10.16,3.24a92,92,0,0,1-25.71,3.76V65.09A120.83,120.83,0,0,1,72.14,66.8l15,2a2.7,2.7,0,0,1,2.51,2.49Z" fill="#b5dbff"/><path d="M77,79.69a2.77,2.77,0,0,1-3,2.52H29.75a2.55,2.55,0,1,1,0-5H74.06A2.77,2.77,0,0,1,77,79.69Z" fill="#edf5ff"/><path d="M74.06,82.21H51.9v-5H74.06a2.55,2.55,0,1,1,0,5Z" fill="#d5e8fe"/><path d="M77,90.42a2.77,2.77,0,0,1-3,2.52H29.75a2.55,2.55,0,1,1,0-5H74.06A2.77,2.77,0,0,1,77,90.42Z" fill="#edf5ff"/><path d="M74.06,92.94H51.9v-5H74.06a2.55,2.55,0,1,1,0,5Z" fill="#d5e8fe"/><path d="M77,101.16a2.77,2.77,0,0,1-3,2.51H29.75a2.55,2.55,0,1,1,0-5H74.06A2.77,2.77,0,0,1,77,101.16Z" fill="#edf5ff"/><path d="M74.06,103.67H51.9v-5H74.06a2.55,2.55,0,1,1,0,5Z" fill="#d5e8fe"/></g></g></g></g></svg>